
<svg
			height="42"
			width="36"
			fill="none"
			viewBox="0 0 36 42"
			xmlns="http://www.w3.org/2000/svg"
		>
			<path
				d="M24.4366 6.69855C25.2637 5.7836 25.8944 4.72084 26.2924 3.57131C26.6905 2.42178 26.8479 1.20811 26.7558 0C24.2164 0.19673 21.8591 1.34298 20.1919 3.19179C19.3935 4.07788 18.7885 5.10871 18.4126 6.22324C18.0368 7.33777 17.8978 8.51335 18.0039 9.68036C19.2426 9.69026 20.4671 9.42647 21.5826 8.90941C22.698 8.39235 23.6746 7.63588 24.4366 6.69855V6.69855ZM29.9503 22.3215C29.965 20.7125 30.4066 19.1335 31.2335 17.7337C32.0604 16.3339 33.2453 15.1594 34.6764 14.321C33.7732 13.0721 32.5793 12.0423 31.1892 11.3134C29.7992 10.5844 28.2513 10.1762 26.6683 10.1213C23.2551 9.78535 20.1044 12.0322 18.2883 12.0322C16.4723 12.0322 13.9124 10.1633 11.068 10.2053C9.20846 10.2641 7.39657 10.7844 5.80902 11.7155C4.22148 12.6466 2.91248 13.9567 2.0097 15.518C-1.84116 21.9435 1.0251 31.4979 4.87596 36.6846C6.62635 39.2254 8.81434 42.1022 11.7025 41.9972C14.5906 41.8922 15.5315 40.2753 18.8791 40.2753C22.2267 40.2753 23.2551 41.9972 26.0994 41.9342C28.9438 41.8712 30.9568 39.3304 32.7947 36.7896C34.0966 34.9449 35.1137 32.9291 35.8141 30.805C34.0801 30.0952 32.6007 28.9136 31.5586 27.4059C30.5165 25.8983 29.9574 24.1307 29.9503 22.3215V22.3215Z"
				fill="black"
			/>
		</svg>