<svg width="35" height="35" viewBox="0 0 35 35" fill="none" xmlns="http://www.w3.org/2000/svg">
<g clip-path="url(#clip0_1602_22623)">
<path d="M33.6783 14.4572L19.4021 14.4565C18.7717 14.4565 18.2607 14.9675 18.2607 15.5979V20.1585C18.2607 20.7887 18.7717 21.2998 19.4021 21.2998H27.4415C26.5612 23.5844 24.9181 25.4977 22.8218 26.7134L26.2498 32.6477C31.7487 29.4674 34.9998 23.8873 34.9998 17.6407C34.9998 16.7513 34.9342 16.1155 34.8031 15.3996C34.7034 14.8556 34.2312 14.4572 33.6783 14.4572Z" fill="#167EE6"/>
<path d="M17.5002 28.1518C13.5659 28.1518 10.1312 26.0022 8.28654 22.8212L2.35254 26.2415C5.37231 31.4753 11.0293 34.9997 17.5002 34.9997C20.6746 34.9997 23.6699 34.145 26.2502 32.6555V32.6473L22.8222 26.7131C21.2542 27.6225 19.4396 28.1518 17.5002 28.1518Z" fill="#12B347"/>
<path d="M26.25 32.6562V32.648L22.822 26.7137C21.254 27.6231 19.4396 28.1525 17.5 28.1525V35.0003C20.6744 35.0003 23.6698 34.1456 26.25 32.6562Z" fill="#0F993E"/>
<path d="M6.84783 17.4997C6.84783 15.5604 7.37707 13.7461 8.28632 12.1782L2.35231 8.75787C0.854629 11.33 0 14.3172 0 17.4997C0 20.6823 0.854629 23.6694 2.35231 26.2416L8.28632 22.8213C7.37707 21.2533 6.84783 19.439 6.84783 17.4997Z" fill="#FFD500"/>
<path d="M17.5002 6.84783C20.0658 6.84783 22.4224 7.75947 24.2632 9.27589C24.7173 9.64995 25.3773 9.62295 25.7932 9.20698L29.0246 5.97563C29.4965 5.50368 29.4629 4.73115 28.9588 4.29379C25.8747 1.61827 21.862 0 17.5002 0C11.0293 0 5.37231 3.5244 2.35254 8.75813L8.28654 12.1784C10.1312 8.99746 13.5659 6.84783 17.5002 6.84783Z" fill="#FF4B26"/>
<path d="M24.2629 9.27589C24.7171 9.64995 25.3771 9.62295 25.793 9.20698L29.0244 5.97563C29.4963 5.50368 29.4626 4.73115 28.9586 4.29379C25.8745 1.6182 21.8618 0 17.5 0V6.84783C20.0655 6.84783 22.4222 7.75947 24.2629 9.27589Z" fill="#D93F21"/>
</g>
<defs>
<clipPath id="clip0_1602_22623">
<rect width="35" height="35" fill="white"/>
</clipPath>
</defs>
</svg>
