<svg width="34" height="35" viewBox="0 0 34 35" fill="none" xmlns="http://www.w3.org/2000/svg">
<rect y="0.5" width="34" height="34" rx="5" fill="#55ACEE"/>
<path fill-rule="evenodd" clip-rule="evenodd" d="M16.4909 14.3178L16.5265 14.9061L15.932 14.834C13.7678 14.5579 11.8771 13.6215 10.2718 12.0489L9.48697 11.2686L9.28482 11.8448C8.85673 13.1293 9.13023 14.4859 10.0221 15.3983C10.4977 15.9025 10.3907 15.9745 9.5702 15.6744C9.28482 15.5783 9.0351 15.5063 9.01132 15.5423C8.92808 15.6264 9.21347 16.7188 9.4394 17.151C9.74857 17.7512 10.3788 18.3395 11.0685 18.6876L11.6512 18.9637L10.9615 18.9757C10.2956 18.9757 10.2718 18.9877 10.3431 19.2398C10.581 20.0201 11.5204 20.8485 12.5668 21.2086L13.304 21.4607L12.6619 21.8449C11.7106 22.3971 10.5928 22.7092 9.47507 22.7332C8.93997 22.7452 8.5 22.7933 8.5 22.8293C8.5 22.9493 9.95072 23.6216 10.795 23.8857C13.3278 24.666 16.3363 24.3299 18.5956 22.9973C20.2009 22.049 21.8062 20.1642 22.5553 18.3395C22.9596 17.3671 23.3639 15.5903 23.3639 14.738C23.3639 14.1858 23.3996 14.1137 24.0655 13.4535C24.4579 13.0693 24.8265 12.6491 24.8979 12.5291C25.0168 12.301 25.0049 12.301 24.3985 12.5051C23.3877 12.8652 23.245 12.8172 23.7445 12.277C24.1131 11.8928 24.5531 11.1966 24.5531 10.9925C24.5531 10.9565 24.3747 11.0165 24.1725 11.1245C23.9585 11.2446 23.4828 11.4247 23.1261 11.5327L22.484 11.7368L21.9013 11.3406C21.5803 11.1245 21.1284 10.8844 20.8906 10.8124C20.2841 10.6443 19.3566 10.6683 18.8096 10.8604C17.3232 11.4006 16.3838 12.7932 16.4909 14.3178Z" fill="white"/>
</svg>
