<svg width="17" height="17" viewBox="0 0 17 17" fill="none" xmlns="http://www.w3.org/2000/svg">
<path fill-rule="evenodd" clip-rule="evenodd" d="M3.72086 3.74937H5.3042V2.9577H11.6381V3.74937H13.2215V2.9577H14.8048V5.3327H2.13815V2.9577H3.72086V3.74937ZM2.13815 6.91604V14.8327H14.8048V6.91604H2.13815ZM5.3042 1.37499H11.6381V0.582703H13.2215V1.37499H14.8045C15.679 1.37499 16.3878 2.08387 16.3878 2.95832V14.8333C16.3878 15.7078 15.679 16.4167 14.8045 16.4167H2.13784C1.26339 16.4167 0.554504 15.7078 0.554504 14.8333V2.95832C0.554504 2.08387 1.26339 1.37499 2.13784 1.37499H3.72086V0.582703H5.3042V1.37499Z" fill="#1682F1"/>
</svg>
