<svg width="20" height="19" viewBox="0 0 20 19" fill="none" xmlns="http://www.w3.org/2000/svg">
<path fill-rule="evenodd" clip-rule="evenodd" d="M8.88753 2.375H12.0542C12.9286 2.375 13.6375 3.08388 13.6375 3.95833V4.25C13.6375 4.52614 13.8614 4.75 14.1375 4.75H16.8042C17.6787 4.75 18.3875 5.45888 18.3875 6.33333V15.0417C18.3875 15.9161 17.6787 16.625 16.8042 16.625H4.13753C3.26308 16.625 2.5542 15.9161 2.5542 15.0417V6.33333C2.5542 5.45888 3.26308 4.75 4.13753 4.75H6.8042C7.08034 4.75 7.3042 4.52614 7.3042 4.25V3.95833C7.3042 3.08388 8.01308 2.375 8.88753 2.375ZM7.3042 6.33326L7.30412 6.33318H4.63749C4.36135 6.33318 4.13749 6.55704 4.13749 6.83318V9.79182C4.13749 10.068 4.36135 10.2918 4.63749 10.2918H9.6792H11.2625H16.3042C16.5803 10.2918 16.8042 10.068 16.8042 9.79182V6.83318C16.8042 6.55704 16.5803 6.33318 16.3042 6.33318H13.6376L13.6375 6.33326L13.6375 6.33333H7.30428L7.3042 6.33326ZM4.13749 12.3752C4.13749 12.099 4.36135 11.8752 4.63749 11.8752H9.28337C9.50198 11.8752 9.6792 12.0524 9.6792 12.271C9.6792 12.4896 9.85642 12.6668 10.075 12.6668H10.8667C11.0853 12.6668 11.2625 12.4896 11.2625 12.271C11.2625 12.0524 11.4398 11.8752 11.6584 11.8752H16.3042C16.5803 11.8752 16.8042 12.099 16.8042 12.3752V14.5415C16.8042 14.8177 16.5803 15.0415 16.3042 15.0415H4.63749C4.36135 15.0415 4.13749 14.8177 4.13749 14.5415V12.3752ZM12.0542 3.95818V4.74985H8.88749V3.95818H12.0542Z" fill="#1682F1"/>
</svg>
