<svg width="20" height="19" viewBox="0 0 20 19" fill="none" xmlns="http://www.w3.org/2000/svg">
<path d="M10.4709 2C6.32831 2 2.97089 5.35742 2.97089 9.5C2.97089 13.6426 6.32831 17 10.4709 17C14.6135 17 17.9709 13.6426 17.9709 9.5C17.9709 5.35742 14.6135 2 10.4709 2ZM10.4709 15.7285C7.03143 15.7285 4.24237 12.9395 4.24237 9.5C4.24237 6.06055 7.03143 3.27148 10.4709 3.27148C13.9103 3.27148 16.6994 6.06055 16.6994 9.5C16.6994 12.9395 13.9103 15.7285 10.4709 15.7285Z" fill="#1682F1" stroke="#1682F1" stroke-width="0.5"/>
<circle cx="5.47089" cy="4.5" r="1.75" fill="#E1EEF4" stroke="#1682F1" stroke-width="1.5"/>
<circle cx="9.47089" cy="16.5" r="1.75" fill="#E1EEF4" stroke="#1682F1" stroke-width="1.5"/>
<circle cx="16.4709" cy="7.5" r="1.75" fill="#E1EEF4" stroke="#1682F1" stroke-width="1.5"/>
</svg>
