<svg width="13" height="13" viewBox="0 0 13 13" fill="none" xmlns="http://www.w3.org/2000/svg">
<path fill-rule="evenodd" clip-rule="evenodd" d="M6.25012 12.75C7.32797 12.75 8.36701 12.4762 9.2873 11.9636L11.9343 12.1842L11.7137 9.53718C12.2264 8.61689 12.5001 7.57785 12.5001 6.5C12.5001 3.04822 9.7019 0.25 6.25012 0.25C2.79834 0.25 0.00012207 3.04822 0.00012207 6.5C0.00012207 9.95178 2.79834 12.75 6.25012 12.75ZM8.82199 10.7888L8.99487 10.6849L10.5659 10.8158L10.435 9.24475L10.5389 9.07187C11.002 8.30152 11.2501 7.41971 11.2501 6.5C11.2501 3.73858 9.01155 1.5 6.25012 1.5C3.4887 1.5 1.25012 3.73858 1.25012 6.5C1.25012 9.26142 3.4887 11.5 6.25012 11.5C7.16983 11.5 8.05164 11.2519 8.82199 10.7888Z" fill="#AEAEB2"/>
</svg>
