<svg width="4" height="16" viewBox="0 0 4 16" fill="none" xmlns="http://www.w3.org/2000/svg">
<path d="M2.66532 7.94523C2.66532 7.48499 2.29223 7.1119 1.83199 7.1119C1.37175 7.1119 0.998657 7.48499 0.998657 7.94523C0.998657 8.40547 1.37175 8.77856 1.83199 8.77856C2.29223 8.77856 2.66532 8.40547 2.66532 7.94523Z" stroke="#A6ADB9" stroke-width="1.5" stroke-linecap="round" stroke-linejoin="round"/>
<path d="M2.66532 2.11186C2.66532 1.65162 2.29223 1.27852 1.83199 1.27852C1.37175 1.27852 0.998657 1.65162 0.998657 2.11186C0.998657 2.57209 1.37175 2.94519 1.83199 2.94519C2.29223 2.94519 2.66532 2.57209 2.66532 2.11186Z" stroke="#A6ADB9" stroke-width="1.5" stroke-linecap="round" stroke-linejoin="round"/>
<path d="M2.66532 13.7785C2.66532 13.3182 2.29223 12.9451 1.83199 12.9451C1.37175 12.9451 0.998657 13.3182 0.998657 13.7785C0.998657 14.2387 1.37175 14.6118 1.83199 14.6118C2.29223 14.6118 2.66532 14.2387 2.66532 13.7785Z" stroke="#A6ADB9" stroke-width="1.5" stroke-linecap="round" stroke-linejoin="round"/>
</svg>
