<svg width="15" height="10" viewBox="0 0 15 10" fill="none" xmlns="http://www.w3.org/2000/svg">
<path fill-rule="evenodd" clip-rule="evenodd" d="M7.50014 0C9.20485 0 10.8349 0.89414 12.3541 2.36322C12.8723 2.8644 13.3412 3.39947 13.7539 3.93476C14.003 4.25778 14.1798 4.51187 14.2767 4.66325L14.492 5L14.2767 5.33675C14.1798 5.48813 14.003 5.74222 13.7539 6.06524C13.3412 6.60053 12.8723 7.1356 12.3541 7.63678C10.8349 9.10586 9.20485 10 7.50014 10C5.79542 10 4.16534 9.10586 2.64621 7.63678C2.12794 7.1356 1.65908 6.60053 1.24633 6.06524C0.997265 5.74222 0.820433 5.48813 0.723614 5.33675L0.50824 5L0.723614 4.66325C0.820433 4.51187 0.997265 4.25778 1.24633 3.93476C1.65908 3.39947 2.12794 2.8644 2.64621 2.36322C4.16534 0.89414 5.79542 0 7.50014 0ZM12.764 4.69805C12.3861 4.20795 11.9565 3.71763 11.4851 3.26178C10.1767 1.99648 8.81581 1.25 7.50014 1.25C6.18446 1.25 4.82357 1.99648 3.51516 3.26178C3.04379 3.71763 2.61413 4.20795 2.23623 4.69805C2.15461 4.8039 2.07919 4.90489 2.01024 5C2.07919 5.09511 2.15461 5.1961 2.23623 5.30195C2.61413 5.79205 3.04379 6.28237 3.51516 6.73822C4.82357 8.00352 6.18446 8.75 7.50014 8.75C8.81581 8.75 10.1767 8.00352 11.4851 6.73822C11.9565 6.28237 12.3861 5.79205 12.764 5.30195C12.8457 5.1961 12.9211 5.09511 12.99 5C12.9211 4.90489 12.8457 4.8039 12.764 4.69805ZM5.00014 5C5.00014 6.38071 6.11942 7.5 7.50014 7.5C8.88085 7.5 10.0001 6.38071 10.0001 5C10.0001 3.61929 8.88085 2.5 7.50014 2.5C6.11942 2.5 5.00014 3.61929 5.00014 5ZM8.75014 5C8.75014 5.69036 8.19049 6.25 7.50014 6.25C6.80978 6.25 6.25014 5.69036 6.25014 5C6.25014 4.30964 6.80978 3.75 7.50014 3.75C8.19049 3.75 8.75014 4.30964 8.75014 5Z" fill="#AEAEB2"/>
</svg>
