<svg width="19" height="19" viewBox="0 0 19 19" fill="none" xmlns="http://www.w3.org/2000/svg">
<path d="M14.15 2.1137C14.3689 1.89483 14.6287 1.72121 14.9147 1.60276C15.2006 1.48431 15.5071 1.42334 15.8167 1.42334C16.1262 1.42334 16.4327 1.48431 16.7187 1.60276C17.0046 1.72121 17.2645 1.89483 17.4833 2.1137C17.7022 2.33257 17.8758 2.5924 17.9943 2.87837C18.1127 3.16434 18.1737 3.47083 18.1737 3.78036C18.1737 4.08989 18.1127 4.39639 17.9943 4.68236C17.8758 4.96832 17.7022 5.22816 17.4833 5.44703L6.23333 16.697L1.64999 17.947L2.89999 13.3637L14.15 2.1137Z" stroke="#A6ADB9" stroke-width="1.5" stroke-linecap="round" stroke-linejoin="round"/>
</svg>
