<svg width="15" height="15" viewBox="0 0 15 15" fill="none" xmlns="http://www.w3.org/2000/svg">
<path fill-rule="evenodd" clip-rule="evenodd" d="M0.0910196 13.9066C0.0910196 14.4589 0.538734 14.9066 1.09102 14.9066C1.6433 14.9066 2.09102 14.4589 2.09102 13.9066V1.95898C2.09102 1.4067 1.6433 0.958984 1.09102 0.958984C0.538734 0.958984 0.0910196 1.4067 0.0910196 1.95898V13.9066ZM5.09114 12.9141C4.53885 12.9141 4.09114 12.4664 4.09114 11.9141V3.9515C4.09114 3.39922 4.53885 2.9515 5.09114 2.9515C5.64342 2.9515 6.09114 3.39922 6.09114 3.9515V11.9141C6.09114 12.4664 5.64342 12.9141 5.09114 12.9141ZM9.09101 11.9178C8.53872 11.9178 8.09101 11.4701 8.09101 10.9178V4.94776C8.09101 4.39548 8.53872 3.94776 9.09101 3.94776C9.64329 3.94776 10.091 4.39548 10.091 4.94776V10.9178C10.091 11.4701 9.64329 11.9178 9.09101 11.9178ZM13.0911 10.9216C12.5388 10.9216 12.0911 10.4739 12.0911 9.92158V5.94402C12.0911 5.39174 12.5388 4.94402 13.0911 4.94402C13.6434 4.94402 14.0911 5.39174 14.0911 5.94402V9.92158C14.0911 10.4739 13.6434 10.9216 13.0911 10.9216Z" fill="#A6ADB9"/>
</svg>
