<svg width="20" height="20" viewBox="0 0 20 20" fill="none" xmlns="http://www.w3.org/2000/svg">
<path d="M9.19922 8.28906C9.27344 8.25391 9.34375 8.25391 9.45312 8.25391C9.48828 8.25391 9.5625 8.25391 9.67188 8.25391C9.78125 8.25391 9.96094 8.28906 10.1797 8.28906L9.26953 5.52734C9.01562 4.83594 8.83203 4.36328 8.6875 4.14453C8.54297 3.92578 8.39844 3.81641 8.25 3.81641C8.14063 3.81641 8.03125 3.85156 7.96094 3.96094C7.88672 4.07031 7.85156 4.17969 7.85156 4.35938C7.85156 4.64844 7.96094 5.12109 8.17969 5.77734C8.39844 6.46875 8.6875 7.33984 9.125 8.43359C9.08984 8.36328 9.16406 8.32812 9.19922 8.28906Z" fill="black"/>
<path d="M10.2891 11.8906C10.4336 11.707 10.5781 11.5625 10.7266 11.418C10.8711 11.2734 11.0547 11.1289 11.2344 11.0195C10.9805 11.0195 10.7266 10.9844 10.5078 10.9453C10.2891 10.9102 10.0703 10.8359 9.85156 10.7617C9.96094 10.9453 10.0352 11.125 10.1055 11.3437C10.1836 11.5273 10.2539 11.7109 10.2891 11.8906Z" fill="black"/>
<path d="M13.4922 9.60156C13.2383 9.38281 12.7656 9.20312 12.0742 9.05469C11.3828 8.91016 10.6211 8.80078 9.85547 8.80078C9.63672 8.80078 9.49219 8.83594 9.41797 8.91016C9.34375 8.98437 9.27344 9.09375 9.27344 9.27344C9.27344 9.67187 9.49219 9.96484 9.96484 10.1445C10.4023 10.3281 11.1289 10.3984 12.1484 10.3984H12.5117C12.5859 10.3984 12.6563 10.4336 12.7305 10.5078C12.7656 10.582 12.8047 10.6523 12.8398 10.7969C12.7305 10.9062 12.5508 11.0156 12.2227 11.125C11.8945 11.2344 11.6758 11.3789 11.4961 11.4883C11.1328 11.7422 10.8398 12.0703 10.625 12.4336C10.4063 12.7969 10.2969 13.125 10.2969 13.4531C10.2969 13.6367 10.332 13.8906 10.4414 14.1445C10.5508 14.4336 10.5859 14.582 10.5859 14.6523V14.7266V14.8008C10.332 14.8008 10.1133 14.6172 9.96875 14.3281C9.82422 14.0391 9.75 13.6719 9.75 13.1641V13.0898C9.71484 13.125 9.64063 13.1641 9.60547 13.1641C9.57031 13.1641 9.49609 13.1992 9.46094 13.1992C9.42578 13.1992 9.35156 13.1992 9.31641 13.1992C9.28125 13.1992 9.20703 13.1641 9.17188 13.1641C9.17188 13.2383 9.20703 13.3086 9.20703 13.3477C9.20703 13.4219 9.20703 13.457 9.20703 13.4922C9.20703 13.7109 9.13281 13.8906 8.95313 14.0742C8.76953 14.2188 8.58984 14.293 8.33594 14.293C7.97266 14.293 7.57422 14.1094 7.20703 13.7461C6.80859 13.3828 6.625 13.0195 6.625 12.6914C6.625 12.6172 6.625 12.582 6.66016 12.5078C6.66016 12.4727 6.69531 12.3984 6.73438 12.3633C6.80859 12.4727 6.91797 12.6172 7.09766 12.8008C7.49609 13.3477 7.85938 13.6016 8.1875 13.6016C8.29688 13.6016 8.40625 13.5664 8.47656 13.4922C8.55078 13.418 8.62109 13.3477 8.62109 13.2734C8.62109 13.1992 8.54688 13.0195 8.4375 12.8359C8.32813 12.6172 8.14844 12.3984 7.96484 12.1445C7.71094 11.8555 7.52734 11.6367 7.38281 11.4883C7.23828 11.3438 7.09375 11.2695 7.01953 11.2695C6.80078 11.2695 6.62109 11.3789 6.4375 11.5977C6.25391 11.8164 6.18359 12.0703 6.18359 12.3984C6.18359 12.6523 6.25781 12.9062 6.36719 13.1992C6.47656 13.4883 6.65625 13.8164 6.91406 14.1094C7.27734 14.582 7.71484 14.9453 8.22266 15.1992C8.73047 15.4531 9.3125 15.5625 9.93359 15.5625C11.0977 15.5625 12.043 15.125 12.8438 14.2539C13.6055 13.3828 14.0078 12.3281 14.0078 11.0156C14.0078 10.6172 13.9727 10.2891 13.9336 10.0703C13.7461 9.89062 13.6367 9.71094 13.4922 9.60156Z" fill="black"/>
<path d="M8.07422 11.4922C8.32813 11.8555 8.58203 12.1094 8.80078 12.3281C9.01953 12.5117 9.19922 12.6172 9.34766 12.6172C9.45703 12.6172 9.53125 12.582 9.63672 12.4727C9.71094 12.3633 9.74609 12.2891 9.74609 12.1836C9.74609 12.0742 9.67188 11.8203 9.49219 11.3828C9.34766 10.9844 9.12891 10.582 8.875 10.1836C8.69141 9.89453 8.51172 9.67578 8.36719 9.52734C8.18359 9.38281 8.03906 9.30859 7.89453 9.30859C7.78516 9.30859 7.64063 9.38281 7.49609 9.52734C7.35156 9.67187 7.27734 9.81641 7.27734 9.96484C7.27734 10.1094 7.35156 10.3281 7.49609 10.6211C7.60156 10.8711 7.81641 11.1992 8.07422 11.4922Z" fill="black"/>
<path d="M10 0C4.47266 0 0 4.47266 0 10C0 15.5273 4.47266 20 10 20C15.5273 20 20 15.5273 20 10C20 4.47266 15.5273 0 10 0ZM13.1641 14.7617C12.2539 15.707 11.1289 16.1797 9.71094 16.1797C9.16406 16.1797 8.62109 16.0703 8.10938 15.8906C7.60156 15.707 7.12891 15.418 6.76563 15.0547C6.32813 14.6562 6.00391 14.2539 5.82031 13.8164C5.60156 13.3789 5.49219 12.9453 5.49219 12.4727C5.49219 11.9648 5.60156 11.5625 5.82031 11.2734C6.03906 10.9844 6.40234 10.8008 6.875 10.6914C6.80078 10.4727 6.73047 10.293 6.69141 10.1836C6.65625 10.0391 6.61719 9.92969 6.61719 9.85547C6.61719 9.60156 6.76172 9.30859 7.05469 9.01953C7.34766 8.73047 7.60156 8.62109 7.85547 8.62109C7.96484 8.62109 8.07422 8.65625 8.18359 8.69531C8.29297 8.73047 8.4375 8.80469 8.58203 8.87891C8.10938 7.57031 7.78125 6.58984 7.60156 5.89844C7.38281 5.20703 7.27344 4.69922 7.27344 4.44531C7.27344 4.08203 7.38281 3.78906 7.5625 3.57422C7.74609 3.35547 8 3.24609 8.32422 3.24609C8.87109 3.24609 9.59766 4.48438 10.4336 6.99219C10.5781 7.42969 10.6875 7.75391 10.7617 7.97266C10.8359 7.78906 10.9062 7.53516 11.0508 7.17188C11.8867 4.69922 12.6523 3.46094 13.2695 3.46094C13.5586 3.46094 13.8164 3.57031 13.9961 3.75C14.1797 3.96875 14.25 4.22266 14.25 4.58594C14.25 4.83984 14.1406 5.3125 13.9609 6.00391C13.7773 6.69531 13.4531 7.60547 13.0508 8.73047C13.5977 8.83984 13.9609 9.05859 14.1797 9.42188C14.3984 9.78516 14.5078 10.332 14.5078 11.0586C14.5078 12.582 14.0742 13.8164 13.1641 14.7617Z" fill="black"/>
<path d="M13.3438 5.96484C13.5625 5.27344 13.6719 4.83594 13.6719 4.65625C13.6719 4.47266 13.6367 4.36719 13.5625 4.25781C13.4883 4.14844 13.3789 4.11328 13.2734 4.11328C13.0898 4.11328 12.9453 4.25781 12.7656 4.51172C12.582 4.80078 12.4023 5.23828 12.1836 5.85547L11.3086 8.4375L12.4375 8.62109C12.8008 7.52734 13.1289 6.65625 13.3438 5.96484Z" fill="black"/>
</svg>
