<svg width="20" height="21" viewBox="0 0 20 21" fill="none" xmlns="http://www.w3.org/2000/svg">
	<path d="M13.5602 13.2947C12.8258 14.0749 11.8161 14.5339 10.7605 14.5339H9.88847C8.92465 14.5339 7.96082 14.1667 7.27238 13.4783C6.62983 12.7898 6.26266 11.9178 6.30856 10.9999V9.85248C6.30856 8.88866 6.67573 8.01663 7.31828 7.32819C8.00672 6.63975 8.92465 6.27258 9.88847 6.27258H10.7146C11.7702 6.27258 12.8258 6.73154 13.5602 7.51178C14.2486 8.24612 15.2124 8.61328 16.2221 8.56739C16.4516 8.56739 16.6811 8.56739 16.9106 8.52149C16.8188 8.29201 16.727 8.06253 16.5893 7.87894L15.5796 6.18079C14.6617 4.62031 13.0094 3.65649 11.1736 3.65649H9.20002C7.36417 3.65649 5.71191 4.62031 4.79399 6.18079L3.78427 7.87894C2.86634 9.43942 2.86634 11.413 3.78427 12.9734L4.79399 14.7175C5.71191 16.278 7.36417 17.2418 9.20002 17.2418H11.1736C13.0094 17.2418 14.6617 16.278 15.5796 14.7175L16.5893 13.0193C16.727 12.8357 16.8188 12.6063 16.9106 12.3768C16.6811 12.3309 16.4516 12.3309 16.2221 12.3309C15.2124 12.1932 14.2486 12.5604 13.5602 13.2947Z" fill="#006BFF" />
	<path d="M10.7142 7.32987H9.8422C8.51121 7.28398 7.36381 8.29369 7.27201 9.67058C7.27201 9.71648 7.27201 9.80827 7.27201 9.85416V11.0016C7.22612 12.3326 8.32763 13.48 9.65862 13.48C9.70451 13.48 9.75041 13.48 9.8422 13.48H10.6683C12.9172 13.48 12.7337 11.1852 16.13 11.1852C16.4513 11.1852 16.7725 11.2311 17.0938 11.2769C17.1856 10.6803 17.1856 10.0836 17.0938 9.53289C16.7725 9.57879 16.4513 9.62468 16.13 9.62468C12.8255 9.62468 13.009 7.32987 10.7142 7.32987Z" fill="#006BFF" />
	<path d="M19.1128 12.1023C18.5162 11.6893 17.8736 11.4139 17.1393 11.2762C17.0934 11.5975 17.0016 11.9646 16.8639 12.2859C17.4606 12.3777 18.0113 12.6072 18.4703 12.9285C17.0475 17.5181 12.1825 20.0883 7.547 18.7114C2.91148 17.3345 0.387187 12.4236 1.80997 7.78809C3.23275 3.15257 8.09775 0.628276 12.7333 2.00516C15.487 2.87719 17.6442 5.03431 18.5162 7.78809C18.0572 8.15526 17.5065 8.33884 16.9098 8.43063C17.0475 8.75191 17.1393 9.07318 17.1852 9.44035C17.8736 9.34856 18.5621 9.07318 19.1587 8.70601C19.5718 8.47653 19.7095 7.97167 19.5259 7.55861C17.9195 2.41823 12.4579 -0.473233 7.31752 1.08724C2.17714 2.69361 -0.714322 8.15526 0.84615 13.2956C2.40662 18.436 7.91417 21.3275 13.0545 19.767C16.1296 18.8032 18.5621 16.4166 19.5259 13.2956C19.6636 12.8826 19.5259 12.3777 19.1128 12.1023Z" fill="#006BFF" />
	<path d="M16.8641 8.5226C16.6346 8.56849 16.4051 8.56849 16.1757 8.56849C15.1659 8.61439 14.2021 8.24722 13.5137 7.51288C12.7793 6.73265 11.7696 6.31958 10.714 6.27368H9.84199C8.87817 6.27368 7.96024 6.64085 7.2718 7.3293C6.62925 8.01774 6.26208 8.88977 6.26208 9.85359V11.001C6.26208 11.9189 6.62925 12.8368 7.2718 13.5253C7.96024 14.2137 8.87817 14.5809 9.84199 14.535H10.6681C11.7237 14.535 12.7793 14.076 13.5137 13.2958C14.2021 12.5615 15.1659 12.1484 16.1757 12.2402C16.4051 12.2402 16.6346 12.2402 16.8641 12.2861C17.0018 11.9648 17.0936 11.6435 17.1395 11.2764C16.8182 11.2305 16.4969 11.1846 16.1757 11.1846C12.7793 11.1846 12.9629 13.4794 10.714 13.4794H9.84199C8.511 13.5253 7.36359 12.4697 7.3177 11.1387C7.3177 11.0928 7.3177 11.0469 7.3177 11.001V9.80769C7.2718 8.4767 8.37331 7.3293 9.7043 7.2834C9.7502 7.2834 9.79609 7.2834 9.84199 7.2834H10.6681C12.917 7.2834 12.7334 9.57821 16.1298 9.57821C16.451 9.57821 16.7723 9.53231 17.0936 9.48642C17.0936 9.21104 17.0018 8.88977 16.8641 8.5226Z" fill="#0AE8F0" />
	<path d="M16.8641 8.5226C16.6346 8.56849 16.4051 8.56849 16.1757 8.56849C15.1659 8.61439 14.2021 8.24722 13.5137 7.51288C12.7793 6.73265 11.7696 6.31958 10.714 6.27368H9.84199C8.87817 6.27368 7.96024 6.64085 7.2718 7.3293C6.62925 8.01774 6.26208 8.88977 6.26208 9.85359V11.001C6.26208 11.9189 6.62925 12.8368 7.2718 13.5253C7.96024 14.2137 8.87817 14.5809 9.84199 14.535H10.6681C11.7237 14.535 12.7793 14.076 13.5137 13.2958C14.2021 12.5615 15.1659 12.1484 16.1757 12.2402C16.4051 12.2402 16.6346 12.2402 16.8641 12.2861C17.0018 11.9648 17.0936 11.6435 17.1395 11.2764C16.8182 11.2305 16.4969 11.1846 16.1757 11.1846C12.7793 11.1846 12.9629 13.4794 10.714 13.4794H9.84199C8.511 13.5253 7.36359 12.4697 7.3177 11.1387C7.3177 11.0928 7.3177 11.0469 7.3177 11.001V9.80769C7.2718 8.4767 8.37331 7.3293 9.7043 7.2834C9.7502 7.2834 9.79609 7.2834 9.84199 7.2834H10.6681C12.917 7.2834 12.7334 9.57821 16.1298 9.57821C16.451 9.57821 16.7723 9.53231 17.0936 9.48642C17.0936 9.21104 17.0018 8.88977 16.8641 8.5226Z" fill="#0AE8F0" />
</svg>
