<svg width="20" height="20" viewBox="0 0 20 20" fill="none" xmlns="http://www.w3.org/2000/svg">
	<rect width="20" height="20" rx="5" fill="#0077B5" />
	<path fill-rule="evenodd" clip-rule="evenodd" d="M7.21617 6.17612C7.20146 5.5085 6.72404 5 5.94878 5C5.17352 5 4.66669 5.5085 4.66669 6.17612C4.66669 6.82992 5.15854 7.35306 5.91937 7.35306H5.93385C6.72404 7.35306 7.21617 6.82992 7.21617 6.17612ZM7.06694 8.28244H4.80072V15.0915H7.06694V8.28244ZM12.6305 8.12255C14.1218 8.12255 15.2398 9.09594 15.2398 11.1874L15.2397 15.0915H12.9736V11.4486C12.9736 10.5336 12.6456 9.90926 11.8253 9.90926C11.1992 9.90926 10.8263 10.3302 10.6625 10.7367C10.6025 10.8824 10.5878 11.0854 10.5878 11.2889V15.0917H8.32135C8.32135 15.0917 8.35122 8.92154 8.32135 8.28262H10.5878V9.24706C10.8886 8.78344 11.4273 8.12255 12.6305 8.12255Z" fill="white" />
</svg>
