<svg width="20" height="20" viewBox="0 0 20 20" fill="none" xmlns="http://www.w3.org/2000/svg">
<rect width="20" height="20" rx="5" fill="#1C1C1E"/>
<g clip-path="url(#clip0_4192_82906)">
<path d="M15.0425 6.3665L16 5.4505V5.25H12.683L10.319 11.134L7.6295 5.25H4.1515V5.4505L5.27 6.797C5.379 6.8965 5.436 7.042 5.4215 7.1885V12.48C5.456 12.6705 5.394 12.8665 5.26 13.005L4 14.532V14.73H7.5725V14.5295L6.3125 13.005C6.176 12.866 6.1115 12.6735 6.139 12.48V7.903L9.275 14.7325H9.6395L12.336 7.903V13.3435C12.336 13.487 12.336 13.5165 12.242 13.6105L11.272 14.549V14.75H15.978V14.5495L15.043 13.634C14.961 13.572 14.9185 13.468 14.936 13.367V6.6335C14.9185 6.532 14.9605 6.428 15.0425 6.3665V6.3665Z" fill="white"/>
</g>
<defs>
<clipPath id="clip0_4192_82906">
<rect width="12" height="12" fill="white" transform="translate(4 4)"/>
</clipPath>
</defs>
</svg>
