<svg width="20" height="20" viewBox="0 0 20 20" fill="none" xmlns="http://www.w3.org/2000/svg">
	<path fill-rule="evenodd" clip-rule="evenodd" d="M10 20C15.5228 20 20 15.5228 20 10C20 4.47715 15.5228 0 10 0C4.47715 0 0 4.47715 0 10C0 15.5228 4.47715 20 10 20Z" fill="url(#paint0_linear_4192_82893)" />
	<path fill-rule="evenodd" clip-rule="evenodd" d="M8.16829 14.5827C7.84433 14.5827 7.89938 14.4604 7.78764 14.1519L6.83496 11.0165L14.1683 6.66602" fill="#C8DAEA" />
	<path fill-rule="evenodd" clip-rule="evenodd" d="M8.16895 14.5826C8.41895 14.5826 8.5294 14.4683 8.66895 14.3326L10.0023 13.0361L8.33911 12.0332" fill="#A9C9DD" />
	<path fill-rule="evenodd" clip-rule="evenodd" d="M8.33725 12.0348L12.3672 15.0122C12.8271 15.2659 13.159 15.1346 13.2736 14.5852L14.914 6.85498C15.0819 6.18163 14.6573 5.87623 14.2174 6.07596L4.58488 9.79021C3.92738 10.0539 3.93121 10.4208 4.46503 10.5842L6.93695 11.3557L12.6597 7.74532C12.9299 7.5815 13.1778 7.66957 12.9743 7.85019" fill="url(#paint1_linear_4192_82893)" />
	<defs>
		<linearGradient id="paint0_linear_4192_82893" x1="7.501" y1="0.834" x2="2.501" y2="12.5" gradientUnits="userSpaceOnUse">
			<stop stop-color="#37AEE2" />
			<stop offset="1" stop-color="#1E96C8" />
		</linearGradient>
		<linearGradient id="paint1_linear_4192_82893" x1="8.74875" y1="10.6149" x2="9.81723" y2="14.0711" gradientUnits="userSpaceOnUse">
			<stop stop-color="#EFF7FC" />
			<stop offset="1" stop-color="white" />
		</linearGradient>
	</defs>
</svg>
