<svg width="20" height="20" viewBox="0 0 20 20" fill="none" xmlns="http://www.w3.org/2000/svg">
<rect width="20" height="20" rx="5" fill="#1C1C1E"/>
<path d="M8.26796 10.2201C7.3164 10.2201 6.54765 10.9889 6.56171 11.9311C6.57109 12.5358 6.9039 13.0608 7.39374 13.3537C7.22734 13.0983 7.1289 12.7959 7.12421 12.4701C7.11015 11.5279 7.8789 10.7592 8.83046 10.7592C9.01796 10.7592 9.19843 10.7897 9.36718 10.8436V8.95684C9.1914 8.93105 9.01093 8.91699 8.83046 8.91699C8.82109 8.91699 8.81406 8.91699 8.80468 8.91699V10.3045C8.63593 10.2506 8.45546 10.2201 8.26796 10.2201V10.2201Z" fill="#F00044"/>
<path d="M12.3812 4.5625H12.3671H11.8796C12.0203 5.26797 12.4164 5.88203 12.9695 6.29922C12.6062 5.81875 12.3859 5.21875 12.3812 4.5625V4.5625Z" fill="#F00044"/>
<path d="M15.2499 7.4334C15.0648 7.4334 14.8866 7.41465 14.7109 7.38184V8.73418C14.0734 8.73418 13.4546 8.60996 12.8734 8.36153C12.4984 8.20215 12.1491 7.99824 11.8281 7.75215L11.8374 11.9217C11.8327 12.8592 11.4624 13.7381 10.7921 14.4014C10.246 14.9404 9.55461 15.285 8.80461 15.3951C8.62883 15.4209 8.44836 15.435 8.2679 15.435C7.46633 15.435 6.70227 15.1748 6.08118 14.6943C6.15149 14.7787 6.22649 14.8608 6.30852 14.9404C6.98352 15.6061 7.87883 15.974 8.83274 15.974C9.01321 15.974 9.19368 15.96 9.36946 15.9342C10.1195 15.824 10.8109 15.4795 11.357 14.9404C12.0273 14.2772 12.3976 13.3983 12.4023 12.4608L12.3671 8.29121C12.6859 8.53731 13.0351 8.74356 13.4124 8.90059C13.996 9.14668 14.6148 9.27325 15.2499 9.27325" fill="#F00044"/>
<path d="M6.3015 9.95528C6.96947 9.29199 7.85775 8.92402 8.80462 8.91699V8.41777C8.62884 8.39199 8.44838 8.37793 8.26791 8.37793C7.31166 8.37793 6.414 8.7459 5.739 9.41621C5.07572 10.0748 4.69603 10.9748 4.69838 11.91C4.69838 12.8522 5.07103 13.7358 5.74369 14.4037C5.8515 14.5092 5.96166 14.6076 6.07884 14.6967C5.54916 14.0662 5.26088 13.2787 5.25853 12.449C5.26088 11.5139 5.63822 10.6139 6.3015 9.95528V9.95528Z" fill="#08FFF9"/>
<path d="M14.7109 7.38212V6.88056H14.7062C14.0546 6.88056 13.4546 6.66494 12.9718 6.29932C13.3913 6.85244 14.0054 7.24618 14.7109 7.38212Z" fill="#08FFF9"/>
<path d="M8.7343 14.1297C8.95695 14.1414 9.17023 14.1109 9.36711 14.0477C10.0468 13.825 10.5366 13.1922 10.5366 12.4469L10.539 9.65781V4.5625H11.8796C11.8444 4.38672 11.8257 4.20859 11.8233 4.02344H9.97648V9.11641L9.97414 11.9055C9.97414 12.6508 9.48429 13.2836 8.80461 13.5063C8.60774 13.5719 8.39445 13.6023 8.1718 13.5883C7.88821 13.5719 7.62336 13.4875 7.39368 13.3516C7.68196 13.7969 8.17414 14.0992 8.7343 14.1297V14.1297Z" fill="#08FFF9"/>
<path d="M8.80462 15.3953C9.55462 15.2852 10.246 14.9406 10.7921 14.4016C11.4624 13.7383 11.8328 12.8594 11.8374 11.9219L11.8281 7.75234C12.1468 7.99844 12.496 8.20469 12.8734 8.36172C13.457 8.60781 14.0757 8.73438 14.7109 8.73438V7.38203C14.0054 7.24609 13.3913 6.85234 12.9718 6.29922C12.4187 5.88203 12.0202 5.26797 11.882 4.5625H10.539V9.65547L10.5367 12.4445C10.5367 13.1898 10.0468 13.8227 9.36712 14.0453C9.17025 14.1109 8.95697 14.1414 8.73431 14.1273C8.17181 14.0969 7.68197 13.7945 7.39369 13.3516C6.90384 13.0609 6.57103 12.5336 6.56166 11.9289C6.54759 10.9867 7.31634 10.218 8.26791 10.218C8.45541 10.218 8.63587 10.2484 8.80462 10.3023V8.91484C7.85775 8.92187 6.96947 9.28984 6.3015 9.95312C5.63822 10.6117 5.25853 11.5117 5.26088 12.4445C5.26088 13.2742 5.54916 14.0617 6.08119 14.6922C6.70463 15.1727 7.46634 15.4328 8.26791 15.4328C8.44838 15.4352 8.62884 15.4211 8.80462 15.3953V15.3953Z" fill="white"/>
</svg>
