<svg width="20" height="20" viewBox="0 0 20 20" fill="none" xmlns="http://www.w3.org/2000/svg">
<path fill-rule="evenodd" clip-rule="evenodd" d="M20 9.9972C20 13.0689 19.7346 14.9571 19.1134 16.1282C18.4862 17.3778 17.7518 17.7708 16.253 17.8863C15.1953 17.9542 12.5406 18 10.0024 18C7.45856 18 4.80251 17.9543 3.7351 17.8855C2.24994 17.7708 1.51547 17.3784 0.889011 16.1424C0.266177 14.948 0 13.052 0 10.0084C0 6.94737 0.264894 5.0609 0.883574 3.8626C1.51828 2.61047 2.26465 2.21326 3.73728 2.11849C4.75586 2.04251 7.26964 2 10.0024 2C12.7293 2 15.242 2.04252 16.253 2.1179C17.7339 2.21303 18.4801 2.60936 19.1093 3.85803C19.7371 5.06048 20 6.93778 20 9.9972Z" fill="#D4483E"/>
<path fill-rule="evenodd" clip-rule="evenodd" d="M8 7L13 10L8 13V7Z" fill="white"/>
</svg>
