<svg width="20" height="20" viewBox="0 0 20 20" fill="none" xmlns="http://www.w3.org/2000/svg">
	<path fill-rule="evenodd" clip-rule="evenodd" d="M0 10C0 4.47715 4.47715 0 10 0C15.5228 0 20 4.47715 20 10C20 15.5228 15.5228 20 10 20C4.47715 20 0 15.5228 0 10Z" fill="#DCDCDD" />
	<path d="M12.5096 11.5123C12.0113 12.0418 11.3261 12.3533 10.6097 12.3533H10.0179C9.36387 12.3533 8.7098 12.1041 8.24261 11.6369C7.80657 11.1697 7.5574 10.578 7.58855 9.95504V9.17639C7.58855 8.52232 7.83771 7.93055 8.27376 7.46336C8.74095 6.99617 9.36387 6.747 10.0179 6.747H10.5786C11.2949 6.747 12.0113 7.05846 12.5096 7.58794C12.9768 8.08628 13.6309 8.33545 14.3161 8.3043C14.4718 8.3043 14.6275 8.3043 14.7833 8.27316C14.721 8.11743 14.6587 7.96169 14.5653 7.83711L13.88 6.68471C13.2571 5.62575 12.1359 4.97168 10.89 4.97168H9.55074C8.3049 4.97168 7.18365 5.62575 6.56073 6.68471L5.87552 7.83711C5.2526 8.89608 5.2526 10.2354 5.87552 11.2943L6.56073 12.4779C7.18365 13.5368 8.3049 14.1909 9.55074 14.1909H10.89C12.1359 14.1909 13.2571 13.5368 13.88 12.4779L14.5653 11.3255C14.6587 11.2009 14.721 11.0451 14.7833 10.8894C14.6275 10.8583 14.4718 10.8583 14.3161 10.8583C13.6309 10.7648 12.9768 11.014 12.5096 11.5123Z" fill="white" />
	<path d="M10.5785 7.46342H9.98669C9.08346 7.43228 8.30481 8.11749 8.24252 9.05187C8.24252 9.08301 8.24252 9.14531 8.24252 9.17645V9.9551C8.21137 10.8583 8.95887 11.637 9.86211 11.637C9.89325 11.637 9.9244 11.637 9.98669 11.637H10.5473C12.0735 11.637 11.9489 10.0797 14.2537 10.0797C14.4717 10.0797 14.6897 10.1108 14.9078 10.142C14.9701 9.73708 14.9701 9.33218 14.9078 8.95843C14.6897 8.98958 14.4717 9.02072 14.2537 9.02072C12.0112 9.02072 12.1358 7.46342 10.5785 7.46342Z" fill="white" />
	<path d="M16.2778 10.7025C15.8729 10.4222 15.4369 10.2353 14.9386 10.1419C14.9074 10.3599 14.8451 10.609 14.7517 10.8271C15.1566 10.8894 15.5303 11.0451 15.8418 11.2631C14.8763 14.3777 11.5748 16.1219 8.42905 15.1875C5.28331 14.2531 3.57028 10.9205 4.5358 7.77475C5.50133 4.62901 8.8028 2.91598 11.9485 3.85036C13.8173 4.44213 15.2812 5.90599 15.8729 7.77475C15.5615 8.02392 15.1877 8.14851 14.7828 8.2108C14.8763 8.42882 14.9386 8.64684 14.9697 8.89601C15.4369 8.83372 15.9041 8.64684 16.309 8.39768C16.5893 8.24195 16.6827 7.89934 16.5582 7.61902C15.468 4.13067 11.7617 2.16847 8.27332 3.22744C4.78497 4.31755 2.82277 8.02392 3.88174 11.5123C4.9407 15.0006 8.67822 16.9628 12.1666 15.9039C14.2534 15.2498 15.9041 13.6302 16.5582 11.5123C16.6516 11.232 16.5582 10.8894 16.2778 10.7025Z" fill="white" />
	<path d="M14.7516 8.27322C14.5959 8.30437 14.4401 8.30437 14.2844 8.30437C13.5992 8.33552 12.9451 8.08635 12.478 7.58801C11.9796 7.05853 11.2944 6.77822 10.578 6.74707H9.98627C9.33221 6.74707 8.70929 6.99624 8.2421 7.46343C7.80605 7.93062 7.55688 8.52239 7.55688 9.17646V9.95511C7.55688 10.578 7.80605 11.2009 8.2421 11.6681C8.70929 12.1353 9.33221 12.3845 9.98627 12.3534H10.5469C11.2633 12.3534 11.9796 12.0419 12.478 11.5124C12.9451 11.0141 13.5992 10.7338 14.2844 10.7961C14.4401 10.7961 14.5959 10.7961 14.7516 10.8272C14.845 10.6092 14.9073 10.3912 14.9385 10.142C14.7205 10.1108 14.5024 10.0797 14.2844 10.0797C11.9796 10.0797 12.1042 11.637 10.578 11.637H9.98627C9.08304 11.6681 8.30439 10.9518 8.27324 10.0485C8.27324 10.0174 8.27324 9.98626 8.27324 9.95511V9.14531C8.2421 8.24208 8.9896 7.46343 9.89283 7.43228C9.92398 7.43228 9.95513 7.43228 9.98627 7.43228H10.5469C12.0731 7.43228 11.9485 8.98958 14.2533 8.98958C14.4713 8.98958 14.6893 8.95844 14.9073 8.92729C14.9073 8.74041 14.845 8.52239 14.7516 8.27322Z" fill="#DCDCDD" />
	<path d="M14.7516 8.27322C14.5959 8.30437 14.4401 8.30437 14.2844 8.30437C13.5992 8.33552 12.9451 8.08635 12.478 7.58801C11.9796 7.05853 11.2944 6.77822 10.578 6.74707H9.98627C9.33221 6.74707 8.70929 6.99624 8.2421 7.46343C7.80605 7.93062 7.55688 8.52239 7.55688 9.17646V9.95511C7.55688 10.578 7.80605 11.2009 8.2421 11.6681C8.70929 12.1353 9.33221 12.3845 9.98627 12.3534H10.5469C11.2633 12.3534 11.9796 12.0419 12.478 11.5124C12.9451 11.0141 13.5992 10.7338 14.2844 10.7961C14.4401 10.7961 14.5959 10.7961 14.7516 10.8272C14.845 10.6092 14.9073 10.3912 14.9385 10.142C14.7205 10.1108 14.5024 10.0797 14.2844 10.0797C11.9796 10.0797 12.1042 11.637 10.578 11.637H9.98627C9.08304 11.6681 8.30439 10.9518 8.27324 10.0485C8.27324 10.0174 8.27324 9.98626 8.27324 9.95511V9.14531C8.2421 8.24208 8.9896 7.46343 9.89283 7.43228C9.92398 7.43228 9.95513 7.43228 9.98627 7.43228H10.5469C12.0731 7.43228 11.9485 8.98958 14.2533 8.98958C14.4713 8.98958 14.6893 8.95844 14.9073 8.92729C14.9073 8.74041 14.845 8.52239 14.7516 8.27322Z" fill="#DCDCDD" />
</svg>
