<svg width="20" height="20" viewBox="0 0 20 20" fill="none" xmlns="http://www.w3.org/2000/svg">
<mask id="mask0_4190_81564" style="mask-type:alpha" maskUnits="userSpaceOnUse" x="0" y="0" width="20" height="20">
<path d="M18.0012 0C18.0012 0 18.0012 0 18.0012 0H1.99875C0.89875 0.003125 0.003125 0.89875 0 1.99875V18.0012C0.003125 19.1012 0.89875 19.9969 1.99875 20H18.0012C19.1012 19.9969 19.9969 19.1012 20 18.0012V1.99875C19.9969 0.89875 19.1012 0.003125 18.0012 0C18.0012 0 18.0012 0 18.0012 0Z" fill="white"/>
</mask>
<g mask="url(#mask0_4190_81564)">
<path d="M18.0012 0H1.99875C0.89875 0.003125 0.003125 0.89875 0 1.99875V18.0012C0.003125 19.1012 0.89875 19.9969 1.99875 20H18.0012C19.1012 19.9969 19.9969 19.1012 20 18.0012V1.99875C19.9969 0.89875 19.1012 0.003125 18.0012 0V0ZM5.8725 12.0537C6.75437 12.4575 7.79625 12.0669 8.2 11.1844H9.58375C8.72125 14.7163 3.5225 14.0913 3.5225 10.455C3.5225 6.81563 8.72125 6.19062 9.58375 9.72563H8.2C7.69187 8.60938 6.22437 8.34188 5.35812 9.21125C4.48875 10.0769 4.75562 11.545 5.8725 12.0531V12.0537ZM15.3256 12.7569C15.0619 12.985 14.7656 13.1606 14.44 13.2844C13.5056 13.6456 12.4512 13.5288 11.6175 12.9656V13.2844H10.3575V4.47563H11.6075V7.9C12.0538 7.5975 12.5712 7.41812 13.1081 7.37562H13.3325C16.1775 7.36937 17.4862 10.9106 15.325 12.7563L15.3256 12.7569ZM15.14 10.4525C15.1594 11.4356 14.3687 12.2463 13.3856 12.2463C12.4025 12.2463 11.6112 11.4356 11.6344 10.4525C11.6831 8.1675 15.0881 8.1675 15.14 10.4525Z" fill="#DCDCDD"/>
</g>
</svg>
