<svg width="20" height="20" viewBox="0 0 20 20" fill="none" xmlns="http://www.w3.org/2000/svg">
<rect width="20" height="20" rx="5" fill="#DCDCDD"/>
<path fill-rule="evenodd" clip-rule="evenodd" d="M10.0005 4.6665C8.552 4.6665 8.37022 4.67284 7.80133 4.69873C7.23354 4.72473 6.84598 4.81462 6.50687 4.94651C6.15609 5.08273 5.85853 5.26495 5.56208 5.56151C5.26541 5.85796 5.08319 6.15552 4.94652 6.50619C4.81429 6.84542 4.72429 7.23309 4.69874 7.80065C4.67329 8.36954 4.66663 8.55143 4.66663 9.99989C4.66663 11.4484 4.67307 11.6296 4.69885 12.1985C4.72496 12.7663 4.81485 13.1538 4.94663 13.4929C5.08296 13.8437 5.26519 14.1413 5.56175 14.4377C5.85808 14.7344 6.15564 14.9171 6.5062 15.0533C6.84554 15.1852 7.23321 15.2751 7.80088 15.3011C8.36978 15.3269 8.55144 15.3333 9.99979 15.3333C11.4484 15.3333 11.6296 15.3269 12.1985 15.3011C12.7663 15.2751 13.1543 15.1852 13.4936 15.0533C13.8443 14.9171 14.1414 14.7344 14.4377 14.4377C14.7344 14.1413 14.9166 13.8437 15.0533 13.493C15.1844 13.1538 15.2744 12.7661 15.3011 12.1986C15.3266 11.6297 15.3333 11.4484 15.3333 9.99989C15.3333 8.55143 15.3266 8.36965 15.3011 7.80076C15.2744 7.23298 15.1844 6.84542 15.0533 6.5063C14.9166 6.15552 14.7344 5.85796 14.4377 5.56151C14.1411 5.26484 13.8444 5.08262 13.4933 4.94651C13.1533 4.81462 12.7655 4.72473 12.1977 4.69873C11.6288 4.67284 11.4477 4.6665 9.99879 4.6665H10.0005ZM9.52199 5.62762C9.66399 5.6274 9.82244 5.62762 10.0004 5.62762C11.4245 5.62762 11.5932 5.63273 12.1556 5.65829C12.6756 5.68207 12.9578 5.76895 13.1458 5.84196C13.3947 5.93862 13.5721 6.05418 13.7587 6.24085C13.9454 6.42752 14.0609 6.6053 14.1578 6.85419C14.2308 7.04197 14.3178 7.32419 14.3415 7.8442C14.367 8.40643 14.3726 8.57532 14.3726 9.99867C14.3726 11.422 14.367 11.5909 14.3415 12.1531C14.3177 12.6731 14.2308 12.9554 14.1578 13.1431C14.0612 13.392 13.9454 13.5693 13.7587 13.7558C13.572 13.9425 13.3948 14.058 13.1458 14.1547C12.958 14.228 12.6756 14.3147 12.1556 14.3385C11.5933 14.364 11.4245 14.3696 10.0004 14.3696C8.57632 14.3696 8.40754 14.364 7.84531 14.3385C7.3253 14.3145 7.04308 14.2276 6.85496 14.1546C6.60607 14.0579 6.42829 13.9424 6.24162 13.7557C6.05496 13.569 5.9394 13.3917 5.84251 13.1427C5.76951 12.9549 5.68251 12.6727 5.65884 12.1527C5.63328 11.5905 5.62817 11.4216 5.62817 9.99733C5.62817 8.5731 5.63328 8.40509 5.65884 7.84287C5.68262 7.32286 5.76951 7.04063 5.84251 6.85263C5.93918 6.60374 6.05496 6.42596 6.24162 6.23929C6.42829 6.05262 6.60607 5.93707 6.85496 5.84018C7.04297 5.76684 7.3253 5.68018 7.84531 5.65629C8.33731 5.63406 8.52798 5.6274 9.52199 5.62629V5.62762ZM12.8474 6.51319C12.494 6.51319 12.2074 6.79952 12.2074 7.15297C12.2074 7.50631 12.494 7.79298 12.8474 7.79298C13.2007 7.79298 13.4874 7.50631 13.4874 7.15297C13.4874 6.79963 13.2007 6.51296 12.8474 6.51296V6.51319ZM10.0004 7.26097C8.48786 7.26097 7.26152 8.48732 7.26152 9.99989C7.26152 11.5125 8.48786 12.7383 10.0004 12.7383C11.513 12.7383 12.7389 11.5125 12.7389 9.99989C12.7389 8.48732 11.5129 7.26097 10.0003 7.26097H10.0004ZM10.0004 8.22209C10.9822 8.22209 11.7782 9.01799 11.7782 9.99989C11.7782 10.9817 10.9822 11.7777 10.0004 11.7777C9.01853 11.7777 8.22264 10.9817 8.22264 9.99989C8.22264 9.01799 9.01853 8.22209 10.0004 8.22209Z" fill="white"/>
</svg>
