<svg width="20" height="20" viewBox="0 0 20 20" fill="none" xmlns="http://www.w3.org/2000/svg">
<rect width="20" height="20" rx="5" fill="#DCDCDD"/>
<path fill-rule="evenodd" clip-rule="evenodd" d="M7.21611 6.17612C7.2014 5.5085 6.72398 5 5.94872 5C5.17346 5 4.66663 5.5085 4.66663 6.17612C4.66663 6.82992 5.15848 7.35306 5.91931 7.35306H5.93379C6.72398 7.35306 7.21611 6.82992 7.21611 6.17612ZM7.06688 8.28244H4.80066V15.0915H7.06688V8.28244ZM12.6305 8.12255C14.1217 8.12255 15.2397 9.09594 15.2397 11.1874L15.2397 15.0915H12.9735V11.4486C12.9735 10.5336 12.6456 9.90926 11.8252 9.90926C11.1991 9.90926 10.8262 10.3302 10.6624 10.7367C10.6025 10.8824 10.5878 11.0854 10.5878 11.2889V15.0917H8.32129C8.32129 15.0917 8.35116 8.92154 8.32129 8.28262H10.5878V9.24706C10.8886 8.78344 11.4273 8.12255 12.6305 8.12255Z" fill="white"/>
</svg>
