<svg width="20" height="21" viewBox="0 0 20 21" fill="none" xmlns="http://www.w3.org/2000/svg">
	<rect y="0.0102539" width="20" height="20" rx="5" fill="#D3D8D9" />
	<g clip-path="url(#clip0_1638_38864)">
		<path d="M15.0425 6.37675L16 5.46075V5.26025H12.683L10.319 11.1442L7.6295 5.26025H4.1515V5.46075L5.27 6.80725C5.379 6.90675 5.436 7.05225 5.4215 7.19875V12.4902C5.456 12.6807 5.394 12.8767 5.26 13.0152L4 14.5422V14.7402H7.5725V14.5397L6.3125 13.0152C6.176 12.8762 6.1115 12.6837 6.139 12.4902V7.91325L9.275 14.7427H9.6395L12.336 7.91325V13.3537C12.336 13.4972 12.336 13.5267 12.242 13.6207L11.272 14.5592V14.7602H15.978V14.5597L15.043 13.6442C14.961 13.5822 14.9185 13.4782 14.936 13.3772V6.64375C14.9185 6.54225 14.9605 6.43825 15.0425 6.37675Z" fill="white" />
	</g>
	<defs>
		<clipPath id="clip0_1638_38864">
			<rect width="12" height="12" fill="white" transform="translate(4 4.01025)" />
		</clipPath>
	</defs>
</svg>
