<svg width="20" height="20" viewBox="0 0 20 20" fill="none" xmlns="http://www.w3.org/2000/svg">
<g clip-path="url(#clip0_4192_82964)">
<rect width="20" height="20" rx="5" fill="#DCDCDD"/>
<path d="M10.8073 13.391C10.0513 13.3325 9.73362 12.9576 9.14074 12.5977C8.81489 14.3074 8.41667 15.9463 7.23714 16.8024C6.87261 14.2184 7.77156 12.2776 8.18903 10.2175C7.47743 9.01957 8.2746 6.60848 9.77551 7.2026C11.6228 7.9331 8.1762 11.6567 10.49 12.1218C12.9055 12.6073 13.8916 7.93043 12.3936 6.40919C10.2292 4.21289 6.09345 6.35927 6.60202 9.50336C6.7259 10.272 7.52022 10.5053 6.91931 11.566C5.53408 11.2592 5.12088 10.1667 5.174 8.71012C5.25975 6.32594 7.31629 4.65657 9.37907 4.42555C11.9879 4.13357 14.4364 5.3835 14.7744 7.83737C15.1546 10.6069 13.5966 13.6063 10.8073 13.391Z" fill="white"/>
</g>
<defs>
<clipPath id="clip0_4192_82964">
<rect width="20" height="20" fill="white"/>
</clipPath>
</defs>
</svg>
