<svg width="20" height="20" viewBox="0 0 20 20" fill="none" xmlns="http://www.w3.org/2000/svg">
<path fill-rule="evenodd" clip-rule="evenodd" d="M10 20C15.5228 20 20 15.5228 20 10C20 4.47715 15.5228 0 10 0C4.47715 0 0 4.47715 0 10C0 15.5228 4.47715 20 10 20Z" fill="#DCDCDD"/>
<path fill-rule="evenodd" clip-rule="evenodd" d="M8.54036 14.5236C8.2164 14.5236 8.27145 14.4013 8.15971 14.0928L7.20703 10.9574L14.5404 6.60693" fill="#D3D8D9"/>
<path fill-rule="evenodd" clip-rule="evenodd" d="M8.54053 14.5235C8.79053 14.5235 8.90099 14.4092 9.04053 14.2735L10.3739 12.977L8.71069 11.9741" fill="white"/>
<path fill-rule="evenodd" clip-rule="evenodd" d="M8.71054 11.9742L12.7405 14.9516C13.2004 15.2054 13.5323 15.074 13.6469 14.5247L15.2873 6.79443C15.4552 6.12108 15.0306 5.81568 14.5907 6.01542L4.95818 9.72967C4.30067 9.99339 4.3045 10.3602 4.83833 10.5237L7.31024 11.2952L13.033 7.68477C13.3031 7.52095 13.5511 7.60902 13.3476 7.78964" fill="white"/>
</svg>
