<svg width="20" height="21" viewBox="0 0 20 21" fill="none" xmlns="http://www.w3.org/2000/svg">
	<rect y="0.0102539" width="20" height="20" rx="5" fill="#D3D8D9" />
	<g clip-path="url(#clip0_1638_38827)">
		<path d="M14.297 7.42649C13.1424 7.42649 12.2031 6.48714 12.2031 5.33252C12.2031 5.15452 12.0588 5.01025 11.8808 5.01025H10.1548C9.97691 5.01025 9.83256 5.15452 9.83256 5.33252V12.4088C9.83256 13.0875 9.28026 13.6398 8.60149 13.6398C7.92271 13.6398 7.3705 13.0875 7.3705 12.4088C7.3705 11.7299 7.92271 11.1777 8.60149 11.1777C8.77949 11.1777 8.92375 11.0334 8.92375 10.8554V9.12946C8.92375 8.95155 8.77949 8.8072 8.60149 8.8072C6.61561 8.8072 5 10.4229 5 12.4088C5 14.3946 6.61561 16.0103 8.60149 16.0103C10.5874 16.0103 12.2031 14.3946 12.2031 12.4088V9.2765C12.8444 9.61848 13.5582 9.79699 14.297 9.79699C14.475 9.79699 14.6193 9.65273 14.6193 9.47472V7.74876C14.6193 7.57084 14.475 7.42649 14.297 7.42649Z" fill="white" />
	</g>
	<defs>
		<clipPath id="clip0_1638_38827">
			<rect width="12" height="12" fill="white" transform="translate(4 4.01025)" />
		</clipPath>
	</defs>
</svg>
