<svg width="20" height="20" viewBox="0 0 20 20" fill="none" xmlns="http://www.w3.org/2000/svg">
<rect width="20" height="20" rx="5" fill="#DCDCDD"/>
<path d="M12.1758 14.044C11.8428 14.044 11.5308 13.966 11.2728 13.8085C11.0665 13.6885 10.885 13.4845 10.813 13.2903C10.741 13.0923 10.7485 12.6873 10.7485 11.9943V9.24625H13.7508V7.00075H10.7485V4H8.81427C8.73627 4.61725 8.59602 5.1295 8.38977 5.5255C8.19252 5.929 7.91502 6.27025 7.58727 6.559C7.24827 6.84475 6.72327 7.063 6.24927 7.21825V8.9185H7.85952V13.1237C7.85952 13.675 7.91502 14.0957 8.03352 14.383C8.14977 14.6725 8.34852 14.9447 8.65227 15.1997C8.95077 15.4577 9.30777 15.6558 9.73452 15.7953C10.15 15.9325 10.477 16 11.0268 16C11.509 16 11.9598 15.9542 12.3723 15.853C12.7855 15.7592 13.2348 15.6168 13.7508 15.376V13.5722C13.1478 13.966 12.784 14.044 12.1758 14.044Z" fill="white"/>
</svg>
