<svg xmlns="http://www.w3.org/2000/svg">
	<g id="linkedin">
		<rect width="20" height="20" rx="5" fill="#0077B5" />
		<path fill-rule="evenodd" clip-rule="evenodd" d="M7.21617 6.17612C7.20146 5.5085 6.72404 5 5.94878 5C5.17352 5 4.66669 5.5085 4.66669 6.17612C4.66669 6.82992 5.15854 7.35306 5.91937 7.35306H5.93385C6.72404 7.35306 7.21617 6.82992 7.21617 6.17612ZM7.06694 8.28244H4.80072V15.0915H7.06694V8.28244ZM12.6305 8.12255C14.1218 8.12255 15.2398 9.09594 15.2398 11.1874L15.2397 15.0915H12.9736V11.4486C12.9736 10.5336 12.6456 9.90926 11.8253 9.90926C11.1992 9.90926 10.8263 10.3302 10.6625 10.7367C10.6025 10.8824 10.5878 11.0854 10.5878 11.2889V15.0917H8.32135C8.32135 15.0917 8.35122 8.92154 8.32135 8.28262H10.5878V9.24706C10.8886 8.78344 11.4273 8.12255 12.6305 8.12255Z" fill="white" />
	</g>
	<g id="twitter">
		<rect width="20" height="20" rx="5" fill="#55ACEE" />
		<path fill-rule="evenodd" clip-rule="evenodd" d="M9.7005 8.12813L9.72149 8.47415L9.37175 8.43178C8.09869 8.26936 6.98652 7.71855 6.04222 6.79347L5.58057 6.33446L5.46166 6.67342C5.20984 7.42902 5.37072 8.22699 5.89533 8.76368C6.17513 9.06027 6.11217 9.10264 5.62953 8.9261C5.46166 8.8696 5.31477 8.82723 5.30078 8.84842C5.25181 8.89785 5.41969 9.54046 5.55259 9.79468C5.73445 10.1478 6.10518 10.4938 6.51088 10.6986L6.85362 10.861L6.44792 10.8681C6.05621 10.8681 6.04222 10.8751 6.08419 11.0234C6.22409 11.4824 6.77668 11.9697 7.39222 12.1815L7.8259 12.3298L7.44818 12.5558C6.88859 12.8806 6.23108 13.0642 5.57357 13.0784C5.25881 13.0854 5 13.1137 5 13.1349C5 13.2055 5.85336 13.6009 6.35 13.7563C7.83989 14.2153 9.60957 14.0176 10.9386 13.2337C11.8829 12.6759 12.8272 11.5672 13.2678 10.4938C13.5057 9.92179 13.7435 8.87666 13.7435 8.37528C13.7435 8.05045 13.7645 8.00808 14.1562 7.61968C14.387 7.39371 14.6039 7.14655 14.6458 7.07593C14.7158 6.94176 14.7088 6.94176 14.352 7.06181C13.7575 7.27366 13.6735 7.24541 13.9673 6.92764C14.1842 6.70166 14.443 6.29209 14.443 6.17204C14.443 6.15085 14.338 6.18616 14.2191 6.24972C14.0932 6.32033 13.8134 6.42626 13.6036 6.48981L13.2259 6.60986L12.8831 6.37683C12.6943 6.24972 12.4285 6.10848 12.2886 6.06611C11.9318 5.96725 11.3862 5.98137 11.0645 6.09436C10.1901 6.41214 9.63755 7.23129 9.7005 8.12813Z" fill="white" />
	</g>
	<g id="facebook">
		<rect width="20" height="20" rx="5" fill="#3B5998" />
		<path fill-rule="evenodd" clip-rule="evenodd" d="M11.0423 15.8798V10.4393H12.5442L12.7432 8.56442H11.0423L11.0449 7.62604C11.0449 7.13706 11.0913 6.87505 11.7937 6.87505H12.7326V5H11.2305C9.42633 5 8.7913 5.9095 8.7913 7.43899V8.56463H7.66669V10.4395H8.7913V15.8798H11.0423Z" fill="white" />
	</g>
	<g id="youtube">
		<path fill-rule="evenodd" clip-rule="evenodd" d="M20 9.9972C20 13.0689 19.7346 14.9571 19.1134 16.1282C18.4862 17.3778 17.7518 17.7708 16.253 17.8863C15.1953 17.9542 12.5406 18 10.0024 18C7.45856 18 4.80251 17.9543 3.7351 17.8855C2.24994 17.7708 1.51547 17.3784 0.889011 16.1424C0.266177 14.948 0 13.052 0 10.0084C0 6.94737 0.264894 5.0609 0.883574 3.8626C1.51828 2.61047 2.26465 2.21326 3.73728 2.11849C4.75586 2.04251 7.26964 2 10.0024 2C12.7293 2 15.242 2.04252 16.253 2.1179C17.7339 2.21303 18.4801 2.60936 19.1093 3.85803C19.7371 5.06048 20 6.93778 20 9.9972Z" fill="#D4483E" />
		<path fill-rule="evenodd" clip-rule="evenodd" d="M8 7L13 10L8 13V7Z" fill="white" />
	</g>
	<!-- It doesn't displayed -->
	<g id="instagram">
		<rect width="20" height="20" rx="5" fill="url(#paint0_linear_4066_81092)" />
		<path fill-rule="evenodd" clip-rule="evenodd" d="M10.0005 4.66666C8.55206 4.66666 8.37028 4.673 7.80139 4.69889C7.2336 4.72489 6.84604 4.81478 6.50693 4.94667C6.15615 5.08289 5.85859 5.26511 5.56214 5.56167C5.26547 5.85812 5.08325 6.15568 4.94658 6.50635C4.81436 6.84558 4.72435 7.23325 4.6988 7.80081C4.67335 8.3697 4.66669 8.55159 4.66669 10.0001C4.66669 11.4485 4.67313 11.6297 4.69891 12.1986C4.72502 12.7664 4.81491 13.154 4.94669 13.4931C5.08302 13.8439 5.26525 14.1414 5.56181 14.4379C5.85814 14.7345 6.1557 14.9172 6.50626 15.0534C6.8456 15.1853 7.23327 15.2752 7.80094 15.3012C8.36984 15.3271 8.55151 15.3334 9.99985 15.3334C11.4484 15.3334 11.6296 15.3271 12.1985 15.3012C12.7663 15.2752 13.1543 15.1853 13.4937 15.0534C13.8443 14.9172 14.1415 14.7345 14.4378 14.4379C14.7345 14.1414 14.9167 13.8439 15.0534 13.4932C15.1845 13.154 15.2745 12.7663 15.3011 12.1987C15.3267 11.6298 15.3334 11.4485 15.3334 10.0001C15.3334 8.55159 15.3267 8.36981 15.3011 7.80092C15.2745 7.23314 15.1845 6.84558 15.0534 6.50646C14.9167 6.15568 14.7345 5.85812 14.4378 5.56167C14.1411 5.265 13.8444 5.08278 13.4933 4.94667C13.1533 4.81478 12.7655 4.72489 12.1978 4.69889C11.6289 4.673 11.4478 4.66666 9.99885 4.66666H10.0005ZM9.52205 5.62778C9.66405 5.62756 9.8225 5.62778 10.0005 5.62778C11.4245 5.62778 11.5933 5.63289 12.1556 5.65845C12.6756 5.68223 12.9579 5.76912 13.1459 5.84212C13.3948 5.93878 13.5722 6.05434 13.7588 6.24101C13.9454 6.42768 14.061 6.60546 14.1579 6.85435C14.2309 7.04213 14.3179 7.32435 14.3415 7.84436C14.3671 8.40659 14.3727 8.57548 14.3727 9.99883C14.3727 11.4222 14.3671 11.5911 14.3415 12.1533C14.3178 12.6733 14.2309 12.9555 14.1579 13.1433C14.0612 13.3922 13.9454 13.5694 13.7588 13.756C13.5721 13.9426 13.3949 14.0582 13.1459 14.1549C12.9581 14.2282 12.6756 14.3149 12.1556 14.3386C11.5934 14.3642 11.4245 14.3698 10.0005 14.3698C8.57638 14.3698 8.4076 14.3642 7.84537 14.3386C7.32536 14.3146 7.04314 14.2278 6.85503 14.1548C6.60613 14.0581 6.42835 13.9425 6.24169 13.7559C6.05502 13.5692 5.93946 13.3919 5.84257 13.1429C5.76957 12.9551 5.68257 12.6729 5.6589 12.1528C5.63335 11.5906 5.62823 11.4217 5.62823 9.99749C5.62823 8.57326 5.63335 8.40525 5.6589 7.84303C5.68268 7.32302 5.76957 7.0408 5.84257 6.85279C5.93924 6.6039 6.05502 6.42612 6.24169 6.23945C6.42835 6.05278 6.60613 5.93723 6.85503 5.84034C7.04303 5.767 7.32536 5.68034 7.84537 5.65645C8.33737 5.63422 8.52804 5.62756 9.52205 5.62645V5.62778ZM12.8474 6.51335C12.4941 6.51335 12.2074 6.79968 12.2074 7.15313C12.2074 7.50647 12.4941 7.79314 12.8474 7.79314C13.2008 7.79314 13.4874 7.50647 13.4874 7.15313C13.4874 6.79979 13.2008 6.51313 12.8474 6.51313V6.51335ZM10.0005 7.26113C8.48792 7.26113 7.26158 8.48748 7.26158 10C7.26158 11.5126 8.48792 12.7384 10.0005 12.7384C11.5131 12.7384 12.739 11.5126 12.739 10C12.739 8.48748 11.513 7.26113 10.0004 7.26113H10.0005ZM10.0005 8.22225C10.9823 8.22225 11.7783 9.01815 11.7783 10C11.7783 10.9818 10.9823 11.7778 10.0005 11.7778C9.01859 11.7778 8.2227 10.9818 8.2227 10C8.2227 9.01815 9.01859 8.22225 10.0005 8.22225Z" fill="white" />
		<defs>
			<linearGradient id="paint0_linear_4066_81092" x1="1.34283" y1="18.697" x2="19.8742" y2="2.65517" gradientUnits="userSpaceOnUse">
				<stop stop-color="#FFDD55" />
				<stop offset="0.5" stop-color="#FF543E" />
				<stop offset="1" stop-color="#C837AB" />
			</linearGradient>
		</defs>
	</g>
	<!--  -->
	<g id="tiktok">
		<rect width="20" height="20" rx="5" fill="#1C1C1E" />
		<path d="M8.26796 10.2201C7.3164 10.2201 6.54765 10.9889 6.56171 11.9311C6.57109 12.5358 6.9039 13.0608 7.39374 13.3537C7.22734 13.0983 7.1289 12.7959 7.12421 12.4701C7.11015 11.5279 7.8789 10.7592 8.83046 10.7592C9.01796 10.7592 9.19843 10.7897 9.36718 10.8436V8.95684C9.1914 8.93105 9.01093 8.91699 8.83046 8.91699C8.82109 8.91699 8.81406 8.91699 8.80468 8.91699V10.3045C8.63593 10.2506 8.45546 10.2201 8.26796 10.2201V10.2201Z" fill="#F00044" />
		<path d="M12.3812 4.5625H12.3671H11.8796C12.0203 5.26797 12.4164 5.88203 12.9695 6.29922C12.6062 5.81875 12.3859 5.21875 12.3812 4.5625V4.5625Z" fill="#F00044" />
		<path d="M15.2499 7.4334C15.0648 7.4334 14.8866 7.41465 14.7109 7.38184V8.73418C14.0734 8.73418 13.4546 8.60996 12.8734 8.36153C12.4984 8.20215 12.1491 7.99824 11.8281 7.75215L11.8374 11.9217C11.8327 12.8592 11.4624 13.7381 10.7921 14.4014C10.246 14.9404 9.55461 15.285 8.80461 15.3951C8.62883 15.4209 8.44836 15.435 8.2679 15.435C7.46633 15.435 6.70227 15.1748 6.08118 14.6943C6.15149 14.7787 6.22649 14.8608 6.30852 14.9404C6.98352 15.6061 7.87883 15.974 8.83274 15.974C9.01321 15.974 9.19368 15.96 9.36946 15.9342C10.1195 15.824 10.8109 15.4795 11.357 14.9404C12.0273 14.2772 12.3976 13.3983 12.4023 12.4608L12.3671 8.29121C12.6859 8.53731 13.0351 8.74356 13.4124 8.90059C13.996 9.14668 14.6148 9.27325 15.2499 9.27325" fill="#F00044" />
		<path d="M6.3015 9.95528C6.96947 9.29199 7.85775 8.92402 8.80462 8.91699V8.41777C8.62884 8.39199 8.44838 8.37793 8.26791 8.37793C7.31166 8.37793 6.414 8.7459 5.739 9.41621C5.07572 10.0748 4.69603 10.9748 4.69838 11.91C4.69838 12.8522 5.07103 13.7358 5.74369 14.4037C5.8515 14.5092 5.96166 14.6076 6.07884 14.6967C5.54916 14.0662 5.26088 13.2787 5.25853 12.449C5.26088 11.5139 5.63822 10.6139 6.3015 9.95528V9.95528Z" fill="#08FFF9" />
		<path d="M14.7109 7.38212V6.88056H14.7062C14.0546 6.88056 13.4546 6.66494 12.9718 6.29932C13.3913 6.85244 14.0054 7.24618 14.7109 7.38212Z" fill="#08FFF9" />
		<path d="M8.7343 14.1297C8.95695 14.1414 9.17023 14.1109 9.36711 14.0477C10.0468 13.825 10.5366 13.1922 10.5366 12.4469L10.539 9.65781V4.5625H11.8796C11.8444 4.38672 11.8257 4.20859 11.8233 4.02344H9.97648V9.11641L9.97414 11.9055C9.97414 12.6508 9.48429 13.2836 8.80461 13.5063C8.60774 13.5719 8.39445 13.6023 8.1718 13.5883C7.88821 13.5719 7.62336 13.4875 7.39368 13.3516C7.68196 13.7969 8.17414 14.0992 8.7343 14.1297V14.1297Z" fill="#08FFF9" />
		<path d="M8.80462 15.3953C9.55462 15.2852 10.246 14.9406 10.7921 14.4016C11.4624 13.7383 11.8328 12.8594 11.8374 11.9219L11.8281 7.75234C12.1468 7.99844 12.496 8.20469 12.8734 8.36172C13.457 8.60781 14.0757 8.73438 14.7109 8.73438V7.38203C14.0054 7.24609 13.3913 6.85234 12.9718 6.29922C12.4187 5.88203 12.0202 5.26797 11.882 4.5625H10.539V9.65547L10.5367 12.4445C10.5367 13.1898 10.0468 13.8227 9.36712 14.0453C9.17025 14.1109 8.95697 14.1414 8.73431 14.1273C8.17181 14.0969 7.68197 13.7945 7.39369 13.3516C6.90384 13.0609 6.57103 12.5336 6.56166 11.9289C6.54759 10.9867 7.31634 10.218 8.26791 10.218C8.45541 10.218 8.63587 10.2484 8.80462 10.3023V8.91484C7.85775 8.92187 6.96947 9.28984 6.3015 9.95312C5.63822 10.6117 5.25853 11.5117 5.26088 12.4445C5.26088 13.2742 5.54916 14.0617 6.08119 14.6922C6.70463 15.1727 7.46634 15.4328 8.26791 15.4328C8.44838 15.4352 8.62884 15.4211 8.80462 15.3953V15.3953Z" fill="white" />
	</g>
	<g id="medium">
		<rect width="20" height="20" rx="5" fill="#1C1C1E" />
		<g clip-path="url(#clip0_4192_82906)">
			<path d="M15.0425 6.3665L16 5.4505V5.25H12.683L10.319 11.134L7.6295 5.25H4.1515V5.4505L5.27 6.797C5.379 6.8965 5.436 7.042 5.4215 7.1885V12.48C5.456 12.6705 5.394 12.8665 5.26 13.005L4 14.532V14.73H7.5725V14.5295L6.3125 13.005C6.176 12.866 6.1115 12.6735 6.139 12.48V7.903L9.275 14.7325H9.6395L12.336 7.903V13.3435C12.336 13.487 12.336 13.5165 12.242 13.6105L11.272 14.549V14.75H15.978V14.5495L15.043 13.634C14.961 13.572 14.9185 13.468 14.936 13.367V6.6335C14.9185 6.532 14.9605 6.428 15.0425 6.3665V6.3665Z" fill="white" />
		</g>
		<defs>
			<clipPath id="clip0_4192_82906">
				<rect width="12" height="12" fill="white" transform="translate(4 4)" />
			</clipPath>
		</defs>
	</g>
	<!-- It doesn't displayed -->
	<g id="telegram">
		<path fill-rule="evenodd" clip-rule="evenodd" d="M10 20C15.5228 20 20 15.5228 20 10C20 4.47715 15.5228 0 10 0C4.47715 0 0 4.47715 0 10C0 15.5228 4.47715 20 10 20Z" fill="url(#paint0_linear_4192_82893)" />
		<path fill-rule="evenodd" clip-rule="evenodd" d="M8.16829 14.5827C7.84433 14.5827 7.89938 14.4604 7.78764 14.1519L6.83496 11.0165L14.1683 6.66602" fill="#C8DAEA" />
		<path fill-rule="evenodd" clip-rule="evenodd" d="M8.16895 14.5826C8.41895 14.5826 8.5294 14.4683 8.66895 14.3326L10.0023 13.0361L8.33911 12.0332" fill="#A9C9DD" />
		<path fill-rule="evenodd" clip-rule="evenodd" d="M8.33725 12.0348L12.3672 15.0122C12.8271 15.2659 13.159 15.1346 13.2736 14.5852L14.914 6.85498C15.0819 6.18163 14.6573 5.87623 14.2174 6.07596L4.58488 9.79021C3.92738 10.0539 3.93121 10.4208 4.46503 10.5842L6.93695 11.3557L12.6597 7.74532C12.9299 7.5815 13.1778 7.66957 12.9743 7.85019" fill="url(#paint1_linear_4192_82893)" />
		<defs>
			<linearGradient id="paint0_linear_4192_82893" x1="7.501" y1="0.834" x2="2.501" y2="12.5" gradientUnits="userSpaceOnUse">
				<stop stop-color="#37AEE2" />
				<stop offset="1" stop-color="#1E96C8" />
			</linearGradient>
			<linearGradient id="paint1_linear_4192_82893" x1="8.74875" y1="10.6149" x2="9.81723" y2="14.0711" gradientUnits="userSpaceOnUse">
				<stop stop-color="#EFF7FC" />
				<stop offset="1" stop-color="white" />
			</linearGradient>
		</defs>
	</g>
	<!--  -->
	<g id="calendly">
		<path d="M13.5602 13.2947C12.8258 14.0749 11.8161 14.5339 10.7605 14.5339H9.88847C8.92465 14.5339 7.96082 14.1667 7.27238 13.4783C6.62983 12.7898 6.26266 11.9178 6.30856 10.9999V9.85248C6.30856 8.88866 6.67573 8.01663 7.31828 7.32819C8.00672 6.63975 8.92465 6.27258 9.88847 6.27258H10.7146C11.7702 6.27258 12.8258 6.73154 13.5602 7.51178C14.2486 8.24612 15.2124 8.61328 16.2221 8.56739C16.4516 8.56739 16.6811 8.56739 16.9106 8.52149C16.8188 8.29201 16.727 8.06253 16.5893 7.87894L15.5796 6.18079C14.6617 4.62031 13.0094 3.65649 11.1736 3.65649H9.20002C7.36417 3.65649 5.71191 4.62031 4.79399 6.18079L3.78427 7.87894C2.86634 9.43942 2.86634 11.413 3.78427 12.9734L4.79399 14.7175C5.71191 16.278 7.36417 17.2418 9.20002 17.2418H11.1736C13.0094 17.2418 14.6617 16.278 15.5796 14.7175L16.5893 13.0193C16.727 12.8357 16.8188 12.6063 16.9106 12.3768C16.6811 12.3309 16.4516 12.3309 16.2221 12.3309C15.2124 12.1932 14.2486 12.5604 13.5602 13.2947Z" fill="#006BFF" />
		<path d="M10.7142 7.32987H9.8422C8.51121 7.28398 7.36381 8.29369 7.27201 9.67058C7.27201 9.71648 7.27201 9.80827 7.27201 9.85416V11.0016C7.22612 12.3326 8.32763 13.48 9.65862 13.48C9.70451 13.48 9.75041 13.48 9.8422 13.48H10.6683C12.9172 13.48 12.7337 11.1852 16.13 11.1852C16.4513 11.1852 16.7725 11.2311 17.0938 11.2769C17.1856 10.6803 17.1856 10.0836 17.0938 9.53289C16.7725 9.57879 16.4513 9.62468 16.13 9.62468C12.8255 9.62468 13.009 7.32987 10.7142 7.32987Z" fill="#006BFF" />
		<path d="M19.1128 12.1023C18.5162 11.6893 17.8736 11.4139 17.1393 11.2762C17.0934 11.5975 17.0016 11.9646 16.8639 12.2859C17.4606 12.3777 18.0113 12.6072 18.4703 12.9285C17.0475 17.5181 12.1825 20.0883 7.547 18.7114C2.91148 17.3345 0.387187 12.4236 1.80997 7.78809C3.23275 3.15257 8.09775 0.628276 12.7333 2.00516C15.487 2.87719 17.6442 5.03431 18.5162 7.78809C18.0572 8.15526 17.5065 8.33884 16.9098 8.43063C17.0475 8.75191 17.1393 9.07318 17.1852 9.44035C17.8736 9.34856 18.5621 9.07318 19.1587 8.70601C19.5718 8.47653 19.7095 7.97167 19.5259 7.55861C17.9195 2.41823 12.4579 -0.473233 7.31752 1.08724C2.17714 2.69361 -0.714322 8.15526 0.84615 13.2956C2.40662 18.436 7.91417 21.3275 13.0545 19.767C16.1296 18.8032 18.5621 16.4166 19.5259 13.2956C19.6636 12.8826 19.5259 12.3777 19.1128 12.1023Z" fill="#006BFF" />
		<path d="M16.8641 8.5226C16.6346 8.56849 16.4051 8.56849 16.1757 8.56849C15.1659 8.61439 14.2021 8.24722 13.5137 7.51288C12.7793 6.73265 11.7696 6.31958 10.714 6.27368H9.84199C8.87817 6.27368 7.96024 6.64085 7.2718 7.3293C6.62925 8.01774 6.26208 8.88977 6.26208 9.85359V11.001C6.26208 11.9189 6.62925 12.8368 7.2718 13.5253C7.96024 14.2137 8.87817 14.5809 9.84199 14.535H10.6681C11.7237 14.535 12.7793 14.076 13.5137 13.2958C14.2021 12.5615 15.1659 12.1484 16.1757 12.2402C16.4051 12.2402 16.6346 12.2402 16.8641 12.2861C17.0018 11.9648 17.0936 11.6435 17.1395 11.2764C16.8182 11.2305 16.4969 11.1846 16.1757 11.1846C12.7793 11.1846 12.9629 13.4794 10.714 13.4794H9.84199C8.511 13.5253 7.36359 12.4697 7.3177 11.1387C7.3177 11.0928 7.3177 11.0469 7.3177 11.001V9.80769C7.2718 8.4767 8.37331 7.3293 9.7043 7.2834C9.7502 7.2834 9.79609 7.2834 9.84199 7.2834H10.6681C12.917 7.2834 12.7334 9.57821 16.1298 9.57821C16.451 9.57821 16.7723 9.53231 17.0936 9.48642C17.0936 9.21104 17.0018 8.88977 16.8641 8.5226Z" fill="#0AE8F0" />
		<path d="M16.8641 8.5226C16.6346 8.56849 16.4051 8.56849 16.1757 8.56849C15.1659 8.61439 14.2021 8.24722 13.5137 7.51288C12.7793 6.73265 11.7696 6.31958 10.714 6.27368H9.84199C8.87817 6.27368 7.96024 6.64085 7.2718 7.3293C6.62925 8.01774 6.26208 8.88977 6.26208 9.85359V11.001C6.26208 11.9189 6.62925 12.8368 7.2718 13.5253C7.96024 14.2137 8.87817 14.5809 9.84199 14.535H10.6681C11.7237 14.535 12.7793 14.076 13.5137 13.2958C14.2021 12.5615 15.1659 12.1484 16.1757 12.2402C16.4051 12.2402 16.6346 12.2402 16.8641 12.2861C17.0018 11.9648 17.0936 11.6435 17.1395 11.2764C16.8182 11.2305 16.4969 11.1846 16.1757 11.1846C12.7793 11.1846 12.9629 13.4794 10.714 13.4794H9.84199C8.511 13.5253 7.36359 12.4697 7.3177 11.1387C7.3177 11.0928 7.3177 11.0469 7.3177 11.001V9.80769C7.2718 8.4767 8.37331 7.3293 9.7043 7.2834C9.7502 7.2834 9.79609 7.2834 9.84199 7.2834H10.6681C12.917 7.2834 12.7334 9.57821 16.1298 9.57821C16.451 9.57821 16.7723 9.53231 17.0936 9.48642C17.0936 9.21104 17.0018 8.88977 16.8641 8.5226Z" fill="#0AE8F0" />
	</g>
	<g id="crunchbase">
		<mask id="mask0_4192_82894" style="mask-type:alpha" maskUnits="userSpaceOnUse" x="0" y="0" width="20" height="20">
			<path d="M18.0013 0C18.0013 0 18.0013 0 18.0013 0H1.99875C0.89875 0.003125 0.003125 0.89875 0 1.99875V18.0013C0.003125 19.1013 0.89875 19.9969 1.99875 20H18.0013C19.1013 19.9969 19.9969 19.1013 20 18.0013V1.99875C19.9969 0.89875 19.1013 0.003125 18.0013 0C18.0013 0 18.0013 0 18.0013 0V0Z" fill="white" />
		</mask>
		<g mask="url(#mask0_4192_82894)">
			<path d="M18.0013 0H1.99875C0.89875 0.003125 0.003125 0.89875 0 1.99875V18.0013C0.003125 19.1013 0.89875 19.9969 1.99875 20H18.0013C19.1013 19.9969 19.9969 19.1013 20 18.0013V1.99875C19.9969 0.89875 19.1013 0.003125 18.0013 0V0ZM5.8725 12.0537C6.75437 12.4575 7.79625 12.0669 8.2 11.1844H9.58375C8.72125 14.7163 3.5225 14.0913 3.5225 10.455C3.5225 6.81563 8.72125 6.19062 9.58375 9.72562H8.2C7.69187 8.60937 6.22437 8.34187 5.35812 9.21125C4.48875 10.0769 4.75562 11.545 5.8725 12.0531V12.0537ZM15.3256 12.7569C15.0619 12.985 14.7656 13.1606 14.44 13.2844C13.5056 13.6456 12.4512 13.5288 11.6175 12.9656V13.2844H10.3575V4.47562H11.6075V7.9C12.0538 7.5975 12.5712 7.41812 13.1081 7.37562H13.3325C16.1775 7.36937 17.4863 10.9106 15.325 12.7562L15.3256 12.7569ZM15.14 10.4525C15.1594 11.4356 14.3687 12.2462 13.3856 12.2462C12.4025 12.2462 11.6112 11.4356 11.6344 10.4525C11.6831 8.1675 15.0881 8.1675 15.14 10.4525V10.4525Z" fill="#0287D1" />
		</g>
	</g>
	<g id="angellist">
		<path d="M9.19922 8.28906C9.27344 8.25391 9.34375 8.25391 9.45312 8.25391C9.48828 8.25391 9.5625 8.25391 9.67188 8.25391C9.78125 8.25391 9.96094 8.28906 10.1797 8.28906L9.26953 5.52734C9.01562 4.83594 8.83203 4.36328 8.6875 4.14453C8.54297 3.92578 8.39844 3.81641 8.25 3.81641C8.14063 3.81641 8.03125 3.85156 7.96094 3.96094C7.88672 4.07031 7.85156 4.17969 7.85156 4.35938C7.85156 4.64844 7.96094 5.12109 8.17969 5.77734C8.39844 6.46875 8.6875 7.33984 9.125 8.43359C9.08984 8.36328 9.16406 8.32812 9.19922 8.28906Z" fill="black" />
		<path d="M10.2891 11.8906C10.4336 11.707 10.5781 11.5625 10.7266 11.418C10.8711 11.2734 11.0547 11.1289 11.2344 11.0195C10.9805 11.0195 10.7266 10.9844 10.5078 10.9453C10.2891 10.9102 10.0703 10.8359 9.85156 10.7617C9.96094 10.9453 10.0352 11.125 10.1055 11.3437C10.1836 11.5273 10.2539 11.7109 10.2891 11.8906Z" fill="black" />
		<path d="M13.4922 9.60156C13.2383 9.38281 12.7656 9.20312 12.0742 9.05469C11.3828 8.91016 10.6211 8.80078 9.85547 8.80078C9.63672 8.80078 9.49219 8.83594 9.41797 8.91016C9.34375 8.98437 9.27344 9.09375 9.27344 9.27344C9.27344 9.67187 9.49219 9.96484 9.96484 10.1445C10.4023 10.3281 11.1289 10.3984 12.1484 10.3984H12.5117C12.5859 10.3984 12.6563 10.4336 12.7305 10.5078C12.7656 10.582 12.8047 10.6523 12.8398 10.7969C12.7305 10.9062 12.5508 11.0156 12.2227 11.125C11.8945 11.2344 11.6758 11.3789 11.4961 11.4883C11.1328 11.7422 10.8398 12.0703 10.625 12.4336C10.4063 12.7969 10.2969 13.125 10.2969 13.4531C10.2969 13.6367 10.332 13.8906 10.4414 14.1445C10.5508 14.4336 10.5859 14.582 10.5859 14.6523V14.7266V14.8008C10.332 14.8008 10.1133 14.6172 9.96875 14.3281C9.82422 14.0391 9.75 13.6719 9.75 13.1641V13.0898C9.71484 13.125 9.64063 13.1641 9.60547 13.1641C9.57031 13.1641 9.49609 13.1992 9.46094 13.1992C9.42578 13.1992 9.35156 13.1992 9.31641 13.1992C9.28125 13.1992 9.20703 13.1641 9.17188 13.1641C9.17188 13.2383 9.20703 13.3086 9.20703 13.3477C9.20703 13.4219 9.20703 13.457 9.20703 13.4922C9.20703 13.7109 9.13281 13.8906 8.95313 14.0742C8.76953 14.2188 8.58984 14.293 8.33594 14.293C7.97266 14.293 7.57422 14.1094 7.20703 13.7461C6.80859 13.3828 6.625 13.0195 6.625 12.6914C6.625 12.6172 6.625 12.582 6.66016 12.5078C6.66016 12.4727 6.69531 12.3984 6.73438 12.3633C6.80859 12.4727 6.91797 12.6172 7.09766 12.8008C7.49609 13.3477 7.85938 13.6016 8.1875 13.6016C8.29688 13.6016 8.40625 13.5664 8.47656 13.4922C8.55078 13.418 8.62109 13.3477 8.62109 13.2734C8.62109 13.1992 8.54688 13.0195 8.4375 12.8359C8.32813 12.6172 8.14844 12.3984 7.96484 12.1445C7.71094 11.8555 7.52734 11.6367 7.38281 11.4883C7.23828 11.3438 7.09375 11.2695 7.01953 11.2695C6.80078 11.2695 6.62109 11.3789 6.4375 11.5977C6.25391 11.8164 6.18359 12.0703 6.18359 12.3984C6.18359 12.6523 6.25781 12.9062 6.36719 13.1992C6.47656 13.4883 6.65625 13.8164 6.91406 14.1094C7.27734 14.582 7.71484 14.9453 8.22266 15.1992C8.73047 15.4531 9.3125 15.5625 9.93359 15.5625C11.0977 15.5625 12.043 15.125 12.8438 14.2539C13.6055 13.3828 14.0078 12.3281 14.0078 11.0156C14.0078 10.6172 13.9727 10.2891 13.9336 10.0703C13.7461 9.89062 13.6367 9.71094 13.4922 9.60156Z" fill="black" />
		<path d="M8.07422 11.4922C8.32813 11.8555 8.58203 12.1094 8.80078 12.3281C9.01953 12.5117 9.19922 12.6172 9.34766 12.6172C9.45703 12.6172 9.53125 12.582 9.63672 12.4727C9.71094 12.3633 9.74609 12.2891 9.74609 12.1836C9.74609 12.0742 9.67188 11.8203 9.49219 11.3828C9.34766 10.9844 9.12891 10.582 8.875 10.1836C8.69141 9.89453 8.51172 9.67578 8.36719 9.52734C8.18359 9.38281 8.03906 9.30859 7.89453 9.30859C7.78516 9.30859 7.64063 9.38281 7.49609 9.52734C7.35156 9.67187 7.27734 9.81641 7.27734 9.96484C7.27734 10.1094 7.35156 10.3281 7.49609 10.6211C7.60156 10.8711 7.81641 11.1992 8.07422 11.4922Z" fill="black" />
		<path d="M10 0C4.47266 0 0 4.47266 0 10C0 15.5273 4.47266 20 10 20C15.5273 20 20 15.5273 20 10C20 4.47266 15.5273 0 10 0ZM13.1641 14.7617C12.2539 15.707 11.1289 16.1797 9.71094 16.1797C9.16406 16.1797 8.62109 16.0703 8.10938 15.8906C7.60156 15.707 7.12891 15.418 6.76563 15.0547C6.32813 14.6562 6.00391 14.2539 5.82031 13.8164C5.60156 13.3789 5.49219 12.9453 5.49219 12.4727C5.49219 11.9648 5.60156 11.5625 5.82031 11.2734C6.03906 10.9844 6.40234 10.8008 6.875 10.6914C6.80078 10.4727 6.73047 10.293 6.69141 10.1836C6.65625 10.0391 6.61719 9.92969 6.61719 9.85547C6.61719 9.60156 6.76172 9.30859 7.05469 9.01953C7.34766 8.73047 7.60156 8.62109 7.85547 8.62109C7.96484 8.62109 8.07422 8.65625 8.18359 8.69531C8.29297 8.73047 8.4375 8.80469 8.58203 8.87891C8.10938 7.57031 7.78125 6.58984 7.60156 5.89844C7.38281 5.20703 7.27344 4.69922 7.27344 4.44531C7.27344 4.08203 7.38281 3.78906 7.5625 3.57422C7.74609 3.35547 8 3.24609 8.32422 3.24609C8.87109 3.24609 9.59766 4.48438 10.4336 6.99219C10.5781 7.42969 10.6875 7.75391 10.7617 7.97266C10.8359 7.78906 10.9062 7.53516 11.0508 7.17188C11.8867 4.69922 12.6523 3.46094 13.2695 3.46094C13.5586 3.46094 13.8164 3.57031 13.9961 3.75C14.1797 3.96875 14.25 4.22266 14.25 4.58594C14.25 4.83984 14.1406 5.3125 13.9609 6.00391C13.7773 6.69531 13.4531 7.60547 13.0508 8.73047C13.5977 8.83984 13.9609 9.05859 14.1797 9.42188C14.3984 9.78516 14.5078 10.332 14.5078 11.0586C14.5078 12.582 14.0742 13.8164 13.1641 14.7617Z" fill="black" />
		<path d="M13.3438 5.96484C13.5625 5.27344 13.6719 4.83594 13.6719 4.65625C13.6719 4.47266 13.6367 4.36719 13.5625 4.25781C13.4883 4.14844 13.3789 4.11328 13.2734 4.11328C13.0898 4.11328 12.9453 4.25781 12.7656 4.51172C12.582 4.80078 12.4023 5.23828 12.1836 5.85547L11.3086 8.4375L12.4375 8.62109C12.8008 7.52734 13.1289 6.65625 13.3438 5.96484Z" fill="black" />
	</g>
	<g id="github">
		<g clip-path="url(#clip0_4192_82903)">
			<path d="M10 0.416504C4.475 0.416504 0 4.8165 0 10.2432C0 14.5857 2.865 18.2682 6.8375 19.5665C7.3375 19.659 7.52083 19.3548 7.52083 19.094C7.52083 18.8607 7.5125 18.2423 7.50833 17.4232C4.72667 18.0157 4.14 16.1048 4.14 16.1048C3.685 14.9707 3.0275 14.6673 3.0275 14.6673C2.12167 14.0582 3.0975 14.0707 3.0975 14.0707C4.10167 14.139 4.62917 15.0832 4.62917 15.0832C5.52083 16.5857 6.97 16.1515 7.54167 15.9007C7.63167 15.2648 7.88917 14.8323 8.175 14.5865C5.95417 14.3407 3.62 13.4957 3.62 9.73067C3.62 8.65817 4.0075 7.78151 4.64917 7.094C4.53667 6.84567 4.19917 5.84651 4.73667 4.49317C4.73667 4.49317 5.57417 4.22984 7.48667 5.50067C8.28667 5.28234 9.13667 5.17401 9.98667 5.169C10.8367 5.17401 11.6867 5.28234 12.4867 5.50067C14.3867 4.22984 15.2242 4.49317 15.2242 4.49317C15.7617 5.84651 15.4242 6.84567 15.3242 7.094C15.9617 7.78151 16.3492 8.65817 16.3492 9.73067C16.3492 13.5057 14.0117 14.3365 11.7867 14.5782C12.1367 14.8732 12.4617 15.4757 12.4617 16.3965C12.4617 17.7115 12.4492 18.7682 12.4492 19.0873C12.4492 19.3448 12.6242 19.6523 13.1367 19.554C17.1375 18.264 20 14.579 20 10.2432C20 4.8165 15.5225 0.416504 10 0.416504Z" fill="#1C1C1E" />
		</g>
		<defs>
			<clipPath id="clip0_4192_82903">
				<rect width="20" height="20" fill="white" />
			</clipPath>
		</defs>
	</g>
	<g id="tumbler">
		<rect width="20" height="20" rx="5" fill="#051833" />
		<path d="M12.1758 14.044C11.8428 14.044 11.5308 13.966 11.2728 13.8085C11.0665 13.6885 10.885 13.4845 10.813 13.2903C10.741 13.0923 10.7485 12.6873 10.7485 11.9943V9.24625H13.7508V7.00075H10.7485V4H8.81427C8.73627 4.61725 8.59602 5.1295 8.38977 5.5255C8.19252 5.929 7.91502 6.27025 7.58727 6.559C7.24827 6.84475 6.72327 7.063 6.24927 7.21825V8.9185H7.85952V13.1237C7.85952 13.675 7.91502 14.0957 8.03352 14.383C8.14977 14.6725 8.34852 14.9447 8.65227 15.1997C8.95077 15.4577 9.30777 15.6558 9.73452 15.7953C10.15 15.9325 10.477 16 11.0268 16C11.509 16 11.9598 15.9542 12.3723 15.853C12.7855 15.7592 13.2348 15.6168 13.7508 15.376V13.5722C13.1478 13.966 12.784 14.044 12.1758 14.044Z" fill="white" />
	</g>
	<g id="pinterest">
		<rect width="20" height="20" rx="5" fill="#CB2027" />
		<path d="M10.8071 13.391C10.0512 13.3325 9.7335 12.9576 9.14062 12.5977C8.81477 14.3074 8.41654 15.9463 7.23702 16.8024C6.87249 14.2184 7.77143 12.2776 8.18891 10.2175C7.47731 9.01958 8.27447 6.60848 9.77539 7.20261C11.6227 7.93311 8.17608 11.6567 10.4898 12.1218C12.9054 12.6073 13.8915 7.93043 12.3934 6.40919C10.2291 4.2129 6.09333 6.35928 6.60189 9.50337C6.72578 10.272 7.52009 10.5053 6.91919 11.566C5.53396 11.2592 5.12076 10.1667 5.17388 8.71013C5.25962 6.32595 7.31617 4.65658 9.37895 4.42556C11.9877 4.13357 14.4363 5.38351 14.7742 7.83738C15.1545 10.607 13.5965 13.6063 10.8071 13.391Z" fill="#F1F2F2" />
	</g>
</svg>
