<svg xmlns="http://www.w3.org/2000/svg">
	<g id="linkedin">
	</g>
	<g id="twitter">
	</g>
	<g id="facebook">
	</g>
	<g id="youtube">
	</g>
	<g id="tiktok">
		<rect y="0.0102539" width="20" height="20" rx="5" fill="#D3D8D9" />
		<g clip-path="url(#clip0_1638_38827)">
			<path d="M14.297 7.42649C13.1424 7.42649 12.2031 6.48714 12.2031 5.33252C12.2031 5.15452 12.0588 5.01025 11.8808 5.01025H10.1548C9.97691 5.01025 9.83256 5.15452 9.83256 5.33252V12.4088C9.83256 13.0875 9.28026 13.6398 8.60149 13.6398C7.92271 13.6398 7.3705 13.0875 7.3705 12.4088C7.3705 11.7299 7.92271 11.1777 8.60149 11.1777C8.77949 11.1777 8.92375 11.0334 8.92375 10.8554V9.12946C8.92375 8.95155 8.77949 8.8072 8.60149 8.8072C6.61561 8.8072 5 10.4229 5 12.4088C5 14.3946 6.61561 16.0103 8.60149 16.0103C10.5874 16.0103 12.2031 14.3946 12.2031 12.4088V9.2765C12.8444 9.61848 13.5582 9.79699 14.297 9.79699C14.475 9.79699 14.6193 9.65273 14.6193 9.47472V7.74876C14.6193 7.57084 14.475 7.42649 14.297 7.42649Z" fill="white" />
		</g>
		<defs>
			<clipPath id="clip0_1638_38827">
				<rect width="12" height="12" fill="white" transform="translate(4 4.01025)" />
			</clipPath>
		</defs>
	</g>
	<g id="medium">
		<rect y="0.0102539" width="20" height="20" rx="5" fill="#D3D8D9" />
		<g clip-path="url(#clip0_1638_38864)">
			<path d="M15.0425 6.37675L16 5.46075V5.26025H12.683L10.319 11.1442L7.6295 5.26025H4.1515V5.46075L5.27 6.80725C5.379 6.90675 5.436 7.05225 5.4215 7.19875V12.4902C5.456 12.6807 5.394 12.8767 5.26 13.0152L4 14.5422V14.7402H7.5725V14.5397L6.3125 13.0152C6.176 12.8762 6.1115 12.6837 6.139 12.4902V7.91325L9.275 14.7427H9.6395L12.336 7.91325V13.3537C12.336 13.4972 12.336 13.5267 12.242 13.6207L11.272 14.5592V14.7602H15.978V14.5597L15.043 13.6442C14.961 13.5822 14.9185 13.4782 14.936 13.3772V6.64375C14.9185 6.54225 14.9605 6.43825 15.0425 6.37675Z" fill="white" />
		</g>
		<defs>
			<clipPath id="clip0_1638_38864">
				<rect width="12" height="12" fill="white" transform="translate(4 4.01025)" />
			</clipPath>
		</defs>
	</g>
	<g id="telegram">
		<path fill-rule="evenodd" clip-rule="evenodd" d="M10 20C15.5228 20 20 15.5228 20 10C20 4.47715 15.5228 0 10 0C4.47715 0 0 4.47715 0 10C0 15.5228 4.47715 20 10 20Z" fill="#DCDCDD" />
		<path fill-rule="evenodd" clip-rule="evenodd" d="M8.54036 14.5236C8.2164 14.5236 8.27145 14.4013 8.15971 14.0928L7.20703 10.9574L14.5404 6.60693" fill="#D3D8D9" />
		<path fill-rule="evenodd" clip-rule="evenodd" d="M8.54053 14.5235C8.79053 14.5235 8.90099 14.4092 9.04053 14.2735L10.3739 12.977L8.71069 11.9741" fill="white" />
		<path fill-rule="evenodd" clip-rule="evenodd" d="M8.71054 11.9742L12.7405 14.9516C13.2004 15.2054 13.5323 15.074 13.6469 14.5247L15.2873 6.79443C15.4552 6.12108 15.0306 5.81568 14.5907 6.01542L4.95818 9.72967C4.30067 9.99339 4.3045 10.3602 4.83833 10.5237L7.31024 11.2952L13.033 7.68477C13.3031 7.52095 13.5511 7.60902 13.3476 7.78964" fill="white" />
	</g>
	<g id="calendly">
		<path fill-rule="evenodd" clip-rule="evenodd" d="M0 10C0 4.47715 4.47715 0 10 0C15.5228 0 20 4.47715 20 10C20 15.5228 15.5228 20 10 20C4.47715 20 0 15.5228 0 10Z" fill="#DCDCDD" />
		<path d="M12.5096 11.5123C12.0113 12.0418 11.3261 12.3533 10.6097 12.3533H10.0179C9.36387 12.3533 8.7098 12.1041 8.24261 11.6369C7.80657 11.1697 7.5574 10.578 7.58855 9.95504V9.17639C7.58855 8.52232 7.83771 7.93055 8.27376 7.46336C8.74095 6.99617 9.36387 6.747 10.0179 6.747H10.5786C11.2949 6.747 12.0113 7.05846 12.5096 7.58794C12.9768 8.08628 13.6309 8.33545 14.3161 8.3043C14.4718 8.3043 14.6275 8.3043 14.7833 8.27316C14.721 8.11743 14.6587 7.96169 14.5653 7.83711L13.88 6.68471C13.2571 5.62575 12.1359 4.97168 10.89 4.97168H9.55074C8.3049 4.97168 7.18365 5.62575 6.56073 6.68471L5.87552 7.83711C5.2526 8.89608 5.2526 10.2354 5.87552 11.2943L6.56073 12.4779C7.18365 13.5368 8.3049 14.1909 9.55074 14.1909H10.89C12.1359 14.1909 13.2571 13.5368 13.88 12.4779L14.5653 11.3255C14.6587 11.2009 14.721 11.0451 14.7833 10.8894C14.6275 10.8583 14.4718 10.8583 14.3161 10.8583C13.6309 10.7648 12.9768 11.014 12.5096 11.5123Z" fill="white" />
		<path d="M10.5785 7.46342H9.98669C9.08346 7.43228 8.30481 8.11749 8.24252 9.05187C8.24252 9.08301 8.24252 9.14531 8.24252 9.17645V9.9551C8.21137 10.8583 8.95887 11.637 9.86211 11.637C9.89325 11.637 9.9244 11.637 9.98669 11.637H10.5473C12.0735 11.637 11.9489 10.0797 14.2537 10.0797C14.4717 10.0797 14.6897 10.1108 14.9078 10.142C14.9701 9.73708 14.9701 9.33218 14.9078 8.95843C14.6897 8.98958 14.4717 9.02072 14.2537 9.02072C12.0112 9.02072 12.1358 7.46342 10.5785 7.46342Z" fill="white" />
		<path d="M16.2778 10.7025C15.8729 10.4222 15.4369 10.2353 14.9386 10.1419C14.9074 10.3599 14.8451 10.609 14.7517 10.8271C15.1566 10.8894 15.5303 11.0451 15.8418 11.2631C14.8763 14.3777 11.5748 16.1219 8.42905 15.1875C5.28331 14.2531 3.57028 10.9205 4.5358 7.77475C5.50133 4.62901 8.8028 2.91598 11.9485 3.85036C13.8173 4.44213 15.2812 5.90599 15.8729 7.77475C15.5615 8.02392 15.1877 8.14851 14.7828 8.2108C14.8763 8.42882 14.9386 8.64684 14.9697 8.89601C15.4369 8.83372 15.9041 8.64684 16.309 8.39768C16.5893 8.24195 16.6827 7.89934 16.5582 7.61902C15.468 4.13067 11.7617 2.16847 8.27332 3.22744C4.78497 4.31755 2.82277 8.02392 3.88174 11.5123C4.9407 15.0006 8.67822 16.9628 12.1666 15.9039C14.2534 15.2498 15.9041 13.6302 16.5582 11.5123C16.6516 11.232 16.5582 10.8894 16.2778 10.7025Z" fill="white" />
		<path d="M14.7516 8.27322C14.5959 8.30437 14.4401 8.30437 14.2844 8.30437C13.5992 8.33552 12.9451 8.08635 12.478 7.58801C11.9796 7.05853 11.2944 6.77822 10.578 6.74707H9.98627C9.33221 6.74707 8.70929 6.99624 8.2421 7.46343C7.80605 7.93062 7.55688 8.52239 7.55688 9.17646V9.95511C7.55688 10.578 7.80605 11.2009 8.2421 11.6681C8.70929 12.1353 9.33221 12.3845 9.98627 12.3534H10.5469C11.2633 12.3534 11.9796 12.0419 12.478 11.5124C12.9451 11.0141 13.5992 10.7338 14.2844 10.7961C14.4401 10.7961 14.5959 10.7961 14.7516 10.8272C14.845 10.6092 14.9073 10.3912 14.9385 10.142C14.7205 10.1108 14.5024 10.0797 14.2844 10.0797C11.9796 10.0797 12.1042 11.637 10.578 11.637H9.98627C9.08304 11.6681 8.30439 10.9518 8.27324 10.0485C8.27324 10.0174 8.27324 9.98626 8.27324 9.95511V9.14531C8.2421 8.24208 8.9896 7.46343 9.89283 7.43228C9.92398 7.43228 9.95513 7.43228 9.98627 7.43228H10.5469C12.0731 7.43228 11.9485 8.98958 14.2533 8.98958C14.4713 8.98958 14.6893 8.95844 14.9073 8.92729C14.9073 8.74041 14.845 8.52239 14.7516 8.27322Z" fill="#DCDCDD" />
		<path d="M14.7516 8.27322C14.5959 8.30437 14.4401 8.30437 14.2844 8.30437C13.5992 8.33552 12.9451 8.08635 12.478 7.58801C11.9796 7.05853 11.2944 6.77822 10.578 6.74707H9.98627C9.33221 6.74707 8.70929 6.99624 8.2421 7.46343C7.80605 7.93062 7.55688 8.52239 7.55688 9.17646V9.95511C7.55688 10.578 7.80605 11.2009 8.2421 11.6681C8.70929 12.1353 9.33221 12.3845 9.98627 12.3534H10.5469C11.2633 12.3534 11.9796 12.0419 12.478 11.5124C12.9451 11.0141 13.5992 10.7338 14.2844 10.7961C14.4401 10.7961 14.5959 10.7961 14.7516 10.8272C14.845 10.6092 14.9073 10.3912 14.9385 10.142C14.7205 10.1108 14.5024 10.0797 14.2844 10.0797C11.9796 10.0797 12.1042 11.637 10.578 11.637H9.98627C9.08304 11.6681 8.30439 10.9518 8.27324 10.0485C8.27324 10.0174 8.27324 9.98626 8.27324 9.95511V9.14531C8.2421 8.24208 8.9896 7.46343 9.89283 7.43228C9.92398 7.43228 9.95513 7.43228 9.98627 7.43228H10.5469C12.0731 7.43228 11.9485 8.98958 14.2533 8.98958C14.4713 8.98958 14.6893 8.95844 14.9073 8.92729C14.9073 8.74041 14.845 8.52239 14.7516 8.27322Z" fill="#DCDCDD" />
	</g>
	<g id="crunchbase">
		<mask id="mask0_4190_81564" style="mask-type:alpha" maskUnits="userSpaceOnUse" x="0" y="0" width="20" height="20">
			<path d="M18.0012 0C18.0012 0 18.0012 0 18.0012 0H1.99875C0.89875 0.003125 0.003125 0.89875 0 1.99875V18.0012C0.003125 19.1012 0.89875 19.9969 1.99875 20H18.0012C19.1012 19.9969 19.9969 19.1012 20 18.0012V1.99875C19.9969 0.89875 19.1012 0.003125 18.0012 0C18.0012 0 18.0012 0 18.0012 0Z" fill="white" />
		</mask>
		<g mask="url(#mask0_4190_81564)">
			<path d="M18.0012 0H1.99875C0.89875 0.003125 0.003125 0.89875 0 1.99875V18.0012C0.003125 19.1012 0.89875 19.9969 1.99875 20H18.0012C19.1012 19.9969 19.9969 19.1012 20 18.0012V1.99875C19.9969 0.89875 19.1012 0.003125 18.0012 0V0ZM5.8725 12.0537C6.75437 12.4575 7.79625 12.0669 8.2 11.1844H9.58375C8.72125 14.7163 3.5225 14.0913 3.5225 10.455C3.5225 6.81563 8.72125 6.19062 9.58375 9.72563H8.2C7.69187 8.60938 6.22437 8.34188 5.35812 9.21125C4.48875 10.0769 4.75562 11.545 5.8725 12.0531V12.0537ZM15.3256 12.7569C15.0619 12.985 14.7656 13.1606 14.44 13.2844C13.5056 13.6456 12.4512 13.5288 11.6175 12.9656V13.2844H10.3575V4.47563H11.6075V7.9C12.0538 7.5975 12.5712 7.41812 13.1081 7.37562H13.3325C16.1775 7.36937 17.4862 10.9106 15.325 12.7563L15.3256 12.7569ZM15.14 10.4525C15.1594 11.4356 14.3687 12.2463 13.3856 12.2463C12.4025 12.2463 11.6112 11.4356 11.6344 10.4525C11.6831 8.1675 15.0881 8.1675 15.14 10.4525Z" fill="#DCDCDD" />
		</g>
	</g>
	<g id="angellist">
		<path d="M9.19922 8.28906C9.27344 8.25391 9.34375 8.25391 9.45312 8.25391C9.48828 8.25391 9.5625 8.25391 9.67188 8.25391C9.78125 8.25391 9.96094 8.28906 10.1797 8.28906L9.26953 5.52734C9.01562 4.83594 8.83203 4.36328 8.6875 4.14453C8.54297 3.92578 8.39844 3.81641 8.25 3.81641C8.14063 3.81641 8.03125 3.85156 7.96094 3.96094C7.88672 4.07031 7.85156 4.17969 7.85156 4.35938C7.85156 4.64844 7.96094 5.12109 8.17969 5.77734C8.39844 6.46875 8.6875 7.33984 9.125 8.43359C9.08984 8.36328 9.16406 8.32812 9.19922 8.28906Z" fill="#DCDCDD" />
		<path d="M10.2891 11.8906C10.4336 11.707 10.5781 11.5625 10.7266 11.418C10.8711 11.2734 11.0547 11.1289 11.2344 11.0195C10.9805 11.0195 10.7266 10.9844 10.5078 10.9453C10.2891 10.9102 10.0703 10.8359 9.85156 10.7617C9.96094 10.9453 10.0352 11.125 10.1055 11.3437C10.1836 11.5273 10.2539 11.7109 10.2891 11.8906Z" fill="#DCDCDD" />
		<path d="M13.4922 9.60156C13.2383 9.38281 12.7656 9.20312 12.0742 9.05469C11.3828 8.91016 10.6211 8.80078 9.85547 8.80078C9.63672 8.80078 9.49219 8.83594 9.41797 8.91016C9.34375 8.98437 9.27344 9.09375 9.27344 9.27344C9.27344 9.67187 9.49219 9.96484 9.96484 10.1445C10.4023 10.3281 11.1289 10.3984 12.1484 10.3984H12.5117C12.5859 10.3984 12.6563 10.4336 12.7305 10.5078C12.7656 10.582 12.8047 10.6523 12.8398 10.7969C12.7305 10.9062 12.5508 11.0156 12.2227 11.125C11.8945 11.2344 11.6758 11.3789 11.4961 11.4883C11.1328 11.7422 10.8398 12.0703 10.625 12.4336C10.4063 12.7969 10.2969 13.125 10.2969 13.4531C10.2969 13.6367 10.332 13.8906 10.4414 14.1445C10.5508 14.4336 10.5859 14.582 10.5859 14.6523V14.7266V14.8008C10.332 14.8008 10.1133 14.6172 9.96875 14.3281C9.82422 14.0391 9.75 13.6719 9.75 13.1641V13.0898C9.71484 13.125 9.64063 13.1641 9.60547 13.1641C9.57031 13.1641 9.49609 13.1992 9.46094 13.1992C9.42578 13.1992 9.35156 13.1992 9.31641 13.1992C9.28125 13.1992 9.20703 13.1641 9.17188 13.1641C9.17188 13.2383 9.20703 13.3086 9.20703 13.3477C9.20703 13.4219 9.20703 13.457 9.20703 13.4922C9.20703 13.7109 9.13281 13.8906 8.95313 14.0742C8.76953 14.2188 8.58984 14.293 8.33594 14.293C7.97266 14.293 7.57422 14.1094 7.20703 13.7461C6.80859 13.3828 6.625 13.0195 6.625 12.6914C6.625 12.6172 6.625 12.582 6.66016 12.5078C6.66016 12.4727 6.69531 12.3984 6.73438 12.3633C6.80859 12.4727 6.91797 12.6172 7.09766 12.8008C7.49609 13.3477 7.85938 13.6016 8.1875 13.6016C8.29688 13.6016 8.40625 13.5664 8.47656 13.4922C8.55078 13.418 8.62109 13.3477 8.62109 13.2734C8.62109 13.1992 8.54688 13.0195 8.4375 12.8359C8.32813 12.6172 8.14844 12.3984 7.96484 12.1445C7.71094 11.8555 7.52734 11.6367 7.38281 11.4883C7.23828 11.3438 7.09375 11.2695 7.01953 11.2695C6.80078 11.2695 6.62109 11.3789 6.4375 11.5977C6.25391 11.8164 6.18359 12.0703 6.18359 12.3984C6.18359 12.6523 6.25781 12.9062 6.36719 13.1992C6.47656 13.4883 6.65625 13.8164 6.91406 14.1094C7.27734 14.582 7.71484 14.9453 8.22266 15.1992C8.73047 15.4531 9.3125 15.5625 9.93359 15.5625C11.0977 15.5625 12.043 15.125 12.8438 14.2539C13.6055 13.3828 14.0078 12.3281 14.0078 11.0156C14.0078 10.6172 13.9727 10.2891 13.9336 10.0703C13.7461 9.89062 13.6367 9.71094 13.4922 9.60156Z" fill="#DCDCDD" />
		<path d="M8.07422 11.4922C8.32813 11.8555 8.58203 12.1094 8.80078 12.3281C9.01953 12.5117 9.19922 12.6172 9.34766 12.6172C9.45703 12.6172 9.53125 12.582 9.63672 12.4727C9.71094 12.3633 9.74609 12.2891 9.74609 12.1836C9.74609 12.0742 9.67188 11.8203 9.49219 11.3828C9.34766 10.9844 9.12891 10.582 8.875 10.1836C8.69141 9.89453 8.51172 9.67578 8.36719 9.52734C8.18359 9.38281 8.03906 9.30859 7.89453 9.30859C7.78516 9.30859 7.64063 9.38281 7.49609 9.52734C7.35156 9.67187 7.27734 9.81641 7.27734 9.96484C7.27734 10.1094 7.35156 10.3281 7.49609 10.6211C7.60156 10.8711 7.81641 11.1992 8.07422 11.4922Z" fill="#DCDCDD" />
		<path d="M10 0C4.47266 0 0 4.47266 0 10C0 15.5273 4.47266 20 10 20C15.5273 20 20 15.5273 20 10C20 4.47266 15.5273 0 10 0ZM13.1641 14.7617C12.2539 15.707 11.1289 16.1797 9.71094 16.1797C9.16406 16.1797 8.62109 16.0703 8.10938 15.8906C7.60156 15.707 7.12891 15.418 6.76563 15.0547C6.32813 14.6562 6.00391 14.2539 5.82031 13.8164C5.60156 13.3789 5.49219 12.9453 5.49219 12.4727C5.49219 11.9648 5.60156 11.5625 5.82031 11.2734C6.03906 10.9844 6.40234 10.8008 6.875 10.6914C6.80078 10.4727 6.73047 10.293 6.69141 10.1836C6.65625 10.0391 6.61719 9.92969 6.61719 9.85547C6.61719 9.60156 6.76172 9.30859 7.05469 9.01953C7.34766 8.73047 7.60156 8.62109 7.85547 8.62109C7.96484 8.62109 8.07422 8.65625 8.18359 8.69531C8.29297 8.73047 8.4375 8.80469 8.58203 8.87891C8.10938 7.57031 7.78125 6.58984 7.60156 5.89844C7.38281 5.20703 7.27344 4.69922 7.27344 4.44531C7.27344 4.08203 7.38281 3.78906 7.5625 3.57422C7.74609 3.35547 8 3.24609 8.32422 3.24609C8.87109 3.24609 9.59766 4.48438 10.4336 6.99219C10.5781 7.42969 10.6875 7.75391 10.7617 7.97266C10.8359 7.78906 10.9062 7.53516 11.0508 7.17188C11.8867 4.69922 12.6523 3.46094 13.2695 3.46094C13.5586 3.46094 13.8164 3.57031 13.9961 3.75C14.1797 3.96875 14.25 4.22266 14.25 4.58594C14.25 4.83984 14.1406 5.3125 13.9609 6.00391C13.7773 6.69531 13.4531 7.60547 13.0508 8.73047C13.5977 8.83984 13.9609 9.05859 14.1797 9.42188C14.3984 9.78516 14.5078 10.332 14.5078 11.0586C14.5078 12.582 14.0742 13.8164 13.1641 14.7617Z" fill="#DCDCDD" />
		<path d="M13.3438 5.96484C13.5625 5.27344 13.6719 4.83594 13.6719 4.65625C13.6719 4.47266 13.6367 4.36719 13.5625 4.25781C13.4883 4.14844 13.3789 4.11328 13.2734 4.11328C13.0898 4.11328 12.9453 4.25781 12.7656 4.51172C12.582 4.80078 12.4023 5.23828 12.1836 5.85547L11.3086 8.4375L12.4375 8.62109C12.8008 7.52734 13.1289 6.65625 13.3438 5.96484Z" fill="#DCDCDD" />
	</g>
	<g id="github">
		<g clip-path="url(#clip0_4190_81593)">
			<path d="M10 0.416641C4.475 0.416641 0 4.81664 0 10.2433C0 14.5858 2.865 18.2683 6.8375 19.5666C7.3375 19.6591 7.52083 19.355 7.52083 19.0941C7.52083 18.8608 7.5125 18.2425 7.50833 17.4233C4.72667 18.0158 4.14 16.105 4.14 16.105C3.685 14.9708 3.0275 14.6675 3.0275 14.6675C2.12167 14.0583 3.0975 14.0708 3.0975 14.0708C4.10167 14.1391 4.62917 15.0833 4.62917 15.0833C5.52083 16.5858 6.97 16.1516 7.54167 15.9008C7.63167 15.265 7.88917 14.8325 8.175 14.5866C5.95417 14.3408 3.62 13.4958 3.62 9.73081C3.62 8.65831 4.0075 7.78164 4.64917 7.09414C4.53667 6.84581 4.19917 5.84664 4.73667 4.49331C4.73667 4.49331 5.57417 4.22998 7.48667 5.50081C8.28667 5.28248 9.13667 5.17414 9.98667 5.16914C10.8367 5.17414 11.6867 5.28248 12.4867 5.50081C14.3867 4.22998 15.2242 4.49331 15.2242 4.49331C15.7617 5.84664 15.4242 6.84581 15.3242 7.09414C15.9617 7.78164 16.3492 8.65831 16.3492 9.73081C16.3492 13.5058 14.0117 14.3366 11.7867 14.5783C12.1367 14.8733 12.4617 15.4758 12.4617 16.3966C12.4617 17.7116 12.4492 18.7683 12.4492 19.0875C12.4492 19.345 12.6242 19.6525 13.1367 19.5541C17.1375 18.2641 20 14.5791 20 10.2433C20 4.81664 15.5225 0.416641 10 0.416641Z" fill="#DCDCDD" />
		</g>
		<defs>
			<clipPath id="clip0_4190_81593">
				<rect width="20" height="20" fill="white" />
			</clipPath>
		</defs>
	</g>
	<g id="tumbler">
		<rect width="20" height="20" rx="5" fill="#DCDCDD" />
		<path d="M12.1758 14.044C11.8428 14.044 11.5308 13.966 11.2728 13.8085C11.0665 13.6885 10.885 13.4845 10.813 13.2903C10.741 13.0923 10.7485 12.6873 10.7485 11.9943V9.24625H13.7508V7.00075H10.7485V4H8.81427C8.73627 4.61725 8.59602 5.1295 8.38977 5.5255C8.19252 5.929 7.91502 6.27025 7.58727 6.559C7.24827 6.84475 6.72327 7.063 6.24927 7.21825V8.9185H7.85952V13.1237C7.85952 13.675 7.91502 14.0957 8.03352 14.383C8.14977 14.6725 8.34852 14.9447 8.65227 15.1997C8.95077 15.4577 9.30777 15.6558 9.73452 15.7953C10.15 15.9325 10.477 16 11.0268 16C11.509 16 11.9598 15.9542 12.3723 15.853C12.7855 15.7592 13.2348 15.6168 13.7508 15.376V13.5722C13.1478 13.966 12.784 14.044 12.1758 14.044Z" fill="white" />
	</g>
	<g  id="pinterest">
		<g clip-path="url(#clip0_4192_82964)">
			<rect width="20" height="20" rx="5" fill="#DCDCDD" />
			<path d="M10.8073 13.391C10.0513 13.3325 9.73362 12.9576 9.14074 12.5977C8.81489 14.3074 8.41667 15.9463 7.23714 16.8024C6.87261 14.2184 7.77156 12.2776 8.18903 10.2175C7.47743 9.01957 8.2746 6.60848 9.77551 7.2026C11.6228 7.9331 8.1762 11.6567 10.49 12.1218C12.9055 12.6073 13.8916 7.93043 12.3936 6.40919C10.2292 4.21289 6.09345 6.35927 6.60202 9.50336C6.7259 10.272 7.52022 10.5053 6.91931 11.566C5.53408 11.2592 5.12088 10.1667 5.174 8.71012C5.25975 6.32594 7.31629 4.65657 9.37907 4.42555C11.9879 4.13357 14.4364 5.3835 14.7744 7.83737C15.1546 10.6069 13.5966 13.6063 10.8073 13.391Z" fill="white" />
		</g>
		<defs>
			<clipPath id="clip0_4192_82964">
				<rect width="20" height="20" fill="white" />
			</clipPath>
		</defs>
	</g>
</svg>
