<svg width="21" height="21" viewBox="0 0 21 21" fill="none" xmlns="http://www.w3.org/2000/svg">
	<path d="M17.1665 6.33362H3.83317C2.9127 6.33362 2.1665 7.07981 2.1665 8.00028V16.3336C2.1665 17.2541 2.9127 18.0003 3.83317 18.0003H17.1665C18.087 18.0003 18.8332 17.2541 18.8332 16.3336V8.00028C18.8332 7.07981 18.087 6.33362 17.1665 6.33362Z" stroke="#A6ADB9" stroke-width="2.02071" stroke-linecap="round" stroke-linejoin="round" />
	<path d="M13.8332 18.0001V4.66679C13.8332 4.22476 13.6576 3.80084 13.345 3.48828C13.0325 3.17572 12.6085 3.00012 12.1665 3.00012H8.83317C8.39114 3.00012 7.96722 3.17572 7.65466 3.48828C7.3421 3.80084 7.1665 4.22476 7.1665 4.66679V18.0001" stroke="#A6ADB9" stroke-width="2.02071" stroke-linecap="round" stroke-linejoin="round" />
</svg>
