<svg width="21" height="21" viewBox="0 0 21 21" fill="none" xmlns="http://www.w3.org/2000/svg">
<path d="M10.971 1.96729C5.73975 1.96729 1.5 6.20703 1.5 11.4383C1.5 16.6695 5.73975 20.9093 10.971 20.9093C16.2022 20.9093 20.442 16.6695 20.442 11.4383C20.442 6.20703 16.2022 1.96729 10.971 1.96729ZM10.971 19.3036C6.62765 19.3036 3.10563 15.7816 3.10563 11.4383C3.10563 7.09494 6.62765 3.57291 10.971 3.57291C15.3143 3.57291 18.8364 7.09494 18.8364 11.4383C18.8364 15.7816 15.3143 19.3036 10.971 19.3036ZM11.981 10.9462L11.4445 10.8204V7.98284C12.2474 8.09383 12.7431 8.59698 12.8282 9.21481C12.8393 9.2999 12.9096 9.3591 12.9947 9.3591H13.9455C14.0454 9.3591 14.1231 9.27401 14.1157 9.17412C13.9862 7.85706 12.9022 7.00985 11.4556 6.86556V6.17374C11.4556 6.08125 11.3779 6.00355 11.2855 6.00355H10.6898C10.5973 6.00355 10.5196 6.08125 10.5196 6.17374V6.87296C9.0213 7.01725 7.85222 7.84596 7.85222 9.38869C7.85222 10.8167 8.90661 11.5086 10.0091 11.7712L10.5307 11.9044V14.9196C9.59474 14.7938 9.07309 14.2944 8.9658 13.6247C8.95471 13.5434 8.88071 13.4842 8.79932 13.4842H7.82263C7.72274 13.4842 7.64504 13.5692 7.65244 13.6691C7.74863 14.8308 8.62914 15.9 10.5122 16.0406V16.7028C10.5122 16.7953 10.5899 16.873 10.6824 16.873H11.2818C11.3742 16.873 11.4519 16.7953 11.4519 16.7028L11.4482 16.0332C13.102 15.8889 14.2858 15.001 14.2858 13.4102C14.2821 11.9414 13.3498 11.2866 11.981 10.9462ZM10.5307 10.6059C10.4123 10.5726 10.3125 10.5393 10.2126 10.4986C9.49855 10.2396 9.16558 9.82525 9.16558 9.2888C9.16558 8.52299 9.74642 8.08273 10.5307 7.98284V10.6059ZM11.4408 14.927V12.1005C11.5074 12.119 11.5666 12.1338 11.6258 12.1486C12.6247 12.452 12.9614 12.8774 12.9614 13.5249C12.9651 14.3499 12.3435 14.8456 11.4408 14.927Z" fill="#A6ADB9"/>
</svg>
