<svg width="20" height="20" viewBox="0 0 20 20" fill="none" xmlns="http://www.w3.org/2000/svg">
	<path fill-rule="evenodd" clip-rule="evenodd" d="M9.99967 0.83313C15.0623 0.83313 19.1663 4.93719 19.1663 9.9998C19.1663 15.0624 15.0623 19.1665 9.99967 19.1665C4.93706 19.1665 0.833008 15.0624 0.833008 9.9998C0.833008 4.93719 4.93706 0.83313 9.99967 0.83313ZM2.55476 9.08919C2.79778 9.40012 3.47327 9.79793 4.50685 10.1225C4.91378 10.2503 5.35945 10.3626 5.83763 10.458C5.83456 10.3062 5.83301 10.1534 5.83301 9.9998C5.83301 7.22708 6.33753 4.72312 7.2115 3.03563C4.71992 4.03413 2.88873 6.33094 2.55476 9.08919ZM5.94059 12.1752C4.60254 11.9426 3.45522 11.5906 2.58572 11.1377C2.99004 13.7949 4.7887 15.9938 7.21193 16.9648C6.5736 15.7326 6.13228 14.065 5.94059 12.1752ZM7.64902 12.3974C8.39662 12.4647 9.18402 12.4996 9.99997 12.4996C10.8028 12.4996 11.5937 12.4541 12.3545 12.3697C11.9786 15.368 10.9392 17.5001 10 17.5001C9.06367 17.5001 8.02776 15.3811 7.64902 12.3974ZM12.4886 10.67C11.6973 10.7725 10.8567 10.8329 9.99997 10.8329C9.12978 10.8329 8.29448 10.7898 7.51274 10.7081C7.50434 10.4752 7.5 10.2391 7.5 10.0001C7.5 5.82012 8.828 2.50012 10 2.50012C11.172 2.50012 12.5 5.82012 12.5 10.0001C12.5 10.2261 12.4961 10.4495 12.4886 10.67ZM14.0657 12.1054C13.8779 14.0241 13.4335 15.7178 12.7872 16.9651C15.2537 15.9772 17.0732 13.7172 17.4344 10.9965C16.5508 11.4561 15.3871 11.8404 14.0657 12.1054ZM17.4404 9.04973C17.0482 9.4899 15.8112 10.0128 14.1632 10.3781C14.1653 10.2526 14.1663 10.1265 14.1663 9.9998C14.1663 7.2269 13.6618 4.72279 12.7877 3.0353C15.2678 4.02886 17.0937 6.30874 17.4404 9.04973Z" fill="#A6ADB9" />
</svg>
