<svg width="20" height="21" viewBox="0 0 20 21" fill="none" xmlns="http://www.w3.org/2000/svg">
<g clip-path="url(#clip0_1638_30502)">
<path d="M16.6933 5.95962L12.2403 1.5066C12.1376 1.40385 11.9953 1.34351 11.8467 1.34351H4.05371C3.13292 1.34351 2.38379 2.09263 2.38379 3.01343V18.6736C2.38379 19.5944 3.13292 20.3435 4.05371 20.3435H15.1865C16.1073 20.3435 16.8564 19.5944 16.8564 18.6736V6.35327C16.8564 6.20179 16.7921 6.05829 16.6933 5.95962ZM12.4033 3.24399L14.956 5.79663H12.96C12.653 5.79663 12.4033 5.54692 12.4033 5.23999V3.24399ZM15.1865 19.2302H4.05371C3.74678 19.2302 3.49707 18.9805 3.49707 18.6736V3.01343C3.49707 2.7065 3.74678 2.45679 4.05371 2.45679H11.29V5.23999C11.29 6.16079 12.0392 6.90991 12.96 6.90991H15.7432V18.6736C15.7432 18.9805 15.4935 19.2302 15.1865 19.2302Z" fill="#A6ADB9" stroke="#A6ADB9" stroke-width="0.4"/>
<path d="M6.83691 12.0505H6.33691V12.5505V13.6638V14.1638H6.83691H9.06348H9.56348V13.6638V12.5505V12.0505H9.06348H6.83691ZM10.1768 12.0505H9.67676V12.5505V13.6638V14.1638H10.1768H12.4033H12.9033V13.6638V12.5505V12.0505H12.4033H10.1768ZM12.4033 11.9373H12.9033V11.4373V10.324V9.82397H12.4033H10.1768H9.67676V10.324V11.4373V11.9373H10.1768H12.4033ZM9.56348 10.324V9.82397H9.06348H6.83691H6.33691V10.324V11.4373V11.9373H6.83691H9.06348H9.56348V11.4373V10.324ZM6.83691 14.2771H6.33691V14.7771V15.8904V16.3904H6.83691H9.06348H9.56348V15.8904V14.7771V14.2771H9.06348H6.83691ZM9.67676 15.8904V16.3904H10.1768H12.4033H12.9033V15.8904V14.7771V14.2771H12.4033H10.1768H9.67676V14.7771V15.8904ZM6.28027 9.71069H12.96C12.9912 9.71069 13.0166 9.73606 13.0166 9.76733V16.447C13.0166 16.4783 12.9912 16.5037 12.96 16.5037H6.28027C6.249 16.5037 6.22363 16.4783 6.22363 16.447V9.76733C6.22363 9.73606 6.249 9.71069 6.28027 9.71069Z" fill="#A6ADB9" stroke="#A6ADB9"/>
</g>
<defs>
<clipPath id="clip0_1638_30502">
<rect width="20" height="20" fill="white" transform="translate(0.000976562 0.533203)"/>
</clipPath>
</defs>
</svg>
