<svg width="20" height="21" viewBox="0 0 20 21" fill="none" xmlns="http://www.w3.org/2000/svg">
<path d="M9.16667 16.3333C12.8486 16.3333 15.8333 13.3486 15.8333 9.66667C15.8333 5.98477 12.8486 3 9.16667 3C5.48477 3 2.5 5.98477 2.5 9.66667C2.5 13.3486 5.48477 16.3333 9.16667 16.3333Z" stroke="#A6ADB9" stroke-width="1.5" stroke-linecap="round" stroke-linejoin="round"/>
<path d="M17.5 18L13.875 14.375" stroke="#A6ADB9" stroke-width="1.5" stroke-linecap="round" stroke-linejoin="round"/>
<path d="M12.2002 13.0417V12.2917C12.2002 11.8939 12.0422 11.5124 11.7609 11.2311C11.4796 10.9498 11.098 10.7917 10.7002 10.7917H7.7002C7.30237 10.7917 6.92084 10.9498 6.63954 11.2311C6.35823 11.5124 6.2002 11.8939 6.2002 12.2917V13.0417" stroke="#A6ADB9" stroke-width="1.5" stroke-linecap="round" stroke-linejoin="round"/>
<path d="M9.05566 9.125C9.88409 9.125 10.5557 8.45343 10.5557 7.625C10.5557 6.79657 9.88409 6.125 9.05566 6.125C8.22724 6.125 7.55566 6.79657 7.55566 7.625C7.55566 8.45343 8.22724 9.125 9.05566 9.125Z" stroke="#A6ADB9" stroke-width="1.5" stroke-linecap="round" stroke-linejoin="round"/>
</svg>
