<svg width="20" height="20" viewBox="0 0 20 20" fill="none" xmlns="http://www.w3.org/2000/svg">
<path fill-rule="evenodd" clip-rule="evenodd" d="M3.33317 15V4.16667H13.3332V15C13.3332 15.2922 13.3833 15.5727 13.4754 15.8333H4.1665C3.70627 15.8333 3.33317 15.4602 3.33317 15ZM15.8332 17.5H4.1665C2.78579 17.5 1.6665 16.3807 1.6665 15V2.5H13.3332H14.1665H14.9998L14.9998 6.66667H18.3332L18.3332 7.5L18.3332 8.33333L18.3332 15C18.3332 16.3807 17.2139 17.5 15.8332 17.5ZM14.9998 8.33333H16.6665V15C16.6665 15.4602 16.2934 15.8333 15.8332 15.8333C15.3729 15.8333 14.9998 15.4602 14.9998 15L14.9998 8.33333ZM8.33317 5.83333V9.16667H4.99984V5.83333H8.33317ZM11.6665 8.33333V6.66667H9.1665V8.33333H11.6665ZM11.6665 10V11.6667H4.99984V10H11.6665ZM11.6665 14.1667V12.5H4.99984V14.1667H11.6665Z" fill="#A6ADB9"/>
</svg>
