<svg width="18" height="15" viewBox="0 0 18 15" fill="none" xmlns="http://www.w3.org/2000/svg">
<path fill-rule="evenodd" clip-rule="evenodd" d="M0.666504 2.50016C0.666504 3.42064 1.4127 4.16683 2.33317 4.16683C3.25365 4.16683 3.99984 3.42064 3.99984 2.50016C3.99984 1.57969 3.25365 0.833496 2.33317 0.833496C1.4127 0.833496 0.666504 1.57969 0.666504 2.50016ZM17.3332 1.66683V3.3335H5.6665V1.66683H17.3332ZM17.3332 8.3335V6.66683H5.6665V8.3335H17.3332ZM5.6665 13.3335H17.3332V11.6668H5.6665V13.3335ZM0.666504 12.5002C0.666504 13.4206 1.4127 14.1668 2.33317 14.1668C3.25365 14.1668 3.99984 13.4206 3.99984 12.5002C3.99984 11.5797 3.25365 10.8335 2.33317 10.8335C1.4127 10.8335 0.666504 11.5797 0.666504 12.5002ZM2.33317 9.16683C1.4127 9.16683 0.666504 8.42064 0.666504 7.50016C0.666504 6.57969 1.4127 5.8335 2.33317 5.8335C3.25365 5.8335 3.99984 6.57969 3.99984 7.50016C3.99984 8.42064 3.25365 9.16683 2.33317 9.16683Z" fill="#A6ADB9"/>
</svg>
