<svg width="18" height="16" viewBox="0 0 18 16" fill="none" xmlns="http://www.w3.org/2000/svg">
<path fill-rule="evenodd" clip-rule="evenodd" d="M2.33317 13V2.16667H12.3332V13C12.3332 13.2922 12.3833 13.5727 12.4754 13.8333H3.1665C2.70627 13.8333 2.33317 13.4602 2.33317 13ZM14.8332 15.5H3.1665C1.78579 15.5 0.666504 14.3807 0.666504 13V0.5H12.3332H13.1665H13.9998L13.9998 4.66667H17.3332L17.3332 5.5L17.3332 6.33333L17.3332 13C17.3332 14.3807 16.2139 15.5 14.8332 15.5ZM13.9998 6.33333H15.6665V13C15.6665 13.4602 15.2934 13.8333 14.8332 13.8333C14.3729 13.8333 13.9998 13.4602 13.9998 13L13.9998 6.33333ZM7.33317 3.83333V7.16667H3.99984V3.83333H7.33317ZM10.6665 6.33333V4.66667H8.1665V6.33333H10.6665ZM10.6665 8V9.66667H3.99984V8H10.6665ZM10.6665 12.1667V10.5H3.99984V12.1667H10.6665Z" fill="#A6ADB9"/>
</svg>
