<svg width="18" height="16" viewBox="0 0 18 16" fill="none" xmlns="http://www.w3.org/2000/svg">
<path fill-rule="evenodd" clip-rule="evenodd" d="M15.6665 13.8333V5.5C16.587 5.5 17.3332 4.75381 17.3332 3.83333V2.16667C17.3332 1.24619 16.587 0.5 15.6665 0.5H2.33317C1.4127 0.5 0.666504 1.24619 0.666504 2.16667V3.83333C0.666504 4.75381 1.4127 5.5 2.33317 5.5V13.8333C2.33317 14.7538 3.07936 15.5 3.99984 15.5H13.9998C14.9203 15.5 15.6665 14.7538 15.6665 13.8333ZM3.99984 13.8333V5.5H13.9998V13.8333H3.99984ZM6.49984 8V6.33333H11.4998V8H6.49984ZM2.33317 3.83333V2.16667H15.6665V3.83333H2.33317Z" fill="#A6ADB9"/>
</svg>
