<svg width="17" height="18" viewBox="0 0 17 18" fill="none" xmlns="http://www.w3.org/2000/svg">
<path d="M8.5 1C4.35742 1 1 4.35742 1 8.5C1 12.6426 4.35742 16 8.5 16C12.6426 16 16 12.6426 16 8.5C16 4.35742 12.6426 1 8.5 1ZM8.5 14.7285C5.06055 14.7285 2.27148 11.9395 2.27148 8.5C2.27148 5.06055 5.06055 2.27148 8.5 2.27148C11.9395 2.27148 14.7285 5.06055 14.7285 8.5C14.7285 11.9395 11.9395 14.7285 8.5 14.7285Z" fill="#A6ADB9" stroke="#A6ADB9" stroke-width="0.5"/>
<circle cx="3.5" cy="3.5" r="1.75" fill="white" stroke="#A6ADB9" stroke-width="1.5"/>
<circle cx="7.5" cy="15.5" r="1.75" fill="white" stroke="#A6ADB9" stroke-width="1.5"/>
<circle cx="14.5" cy="6.5" r="1.75" fill="white" stroke="#A6ADB9" stroke-width="1.5"/>
</svg>
