<svg>
	<g id="arrow" fill="none" xmlns="http://www.w3.org/2000/svg">
		<path d="M11.0163 19.6376C10.6296 20.0143 10.0117 20.0095 9.63096 19.6269L0.00292969 9.95646L9.6412 0.278467C10.0083 -0.0903232 10.6049 -0.0916917 10.9737 0.27541L10.9767 0.278467C11.346 0.649457 11.346 1.24914 10.9768 1.62016L2.67227 9.95918L11.0233 18.2705C11.3989 18.6441 11.4006 19.2514 11.027 19.627C11.0235 19.6306 11.0199 19.6341 11.0163 19.6376Z" fill="#A6ADB9" />
	</g>
	<g id="pencil" fill="none" xmlns="http://www.w3.org/2000/svg">
		<path d="M14.15 2.1137C14.3689 1.89483 14.6287 1.72121 14.9147 1.60276C15.2006 1.48431 15.5071 1.42334 15.8167 1.42334C16.1262 1.42334 16.4327 1.48431 16.7187 1.60276C17.0046 1.72121 17.2645 1.89483 17.4833 2.1137C17.7022 2.33257 17.8758 2.5924 17.9943 2.87837C18.1127 3.16434 18.1737 3.47083 18.1737 3.78036C18.1737 4.08989 18.1127 4.39639 17.9943 4.68236C17.8758 4.96832 17.7022 5.22816 17.4833 5.44703L6.23333 16.697L1.64999 17.947L2.89999 13.3637L14.15 2.1137Z" stroke="#A6ADB9" stroke-width="1.5" stroke-linecap="round" stroke-linejoin="round" />
	</g>
	<g id="share" fill="none" xmlns="http://www.w3.org/2000/svg">
		<path d="M4.32532 10.6104V17.277C4.32532 17.719 4.50091 18.143 4.81347 18.4555C5.12603 18.7681 5.54996 18.9437 5.99198 18.9437H15.992C16.434 18.9437 16.8579 18.7681 17.1705 18.4555C17.4831 18.143 17.6586 17.719 17.6586 17.277V10.6104" stroke="#A6ADB9" stroke-width="1.5" stroke-linecap="round" stroke-linejoin="round" />
		<path d="M14.3254 5.61031L10.992 2.27698L7.65869 5.61031" stroke="#A6ADB9" stroke-width="1.5" stroke-linecap="round" stroke-linejoin="round" />
		<path d="M10.992 2.27698V13.1103" stroke="#A6ADB9" stroke-width="1.5" stroke-linecap="round" stroke-linejoin="round" />
	</g>
	<g id="dots" fill="none" xmlns="http://www.w3.org/2000/svg">
		<path d="M2.66532 7.94523C2.66532 7.48499 2.29223 7.1119 1.83199 7.1119C1.37175 7.1119 0.998657 7.48499 0.998657 7.94523C0.998657 8.40547 1.37175 8.77856 1.83199 8.77856C2.29223 8.77856 2.66532 8.40547 2.66532 7.94523Z" stroke="#A6ADB9" stroke-width="1.5" stroke-linecap="round" stroke-linejoin="round" />
		<path d="M2.66532 2.11186C2.66532 1.65162 2.29223 1.27852 1.83199 1.27852C1.37175 1.27852 0.998657 1.65162 0.998657 2.11186C0.998657 2.57209 1.37175 2.94519 1.83199 2.94519C2.29223 2.94519 2.66532 2.57209 2.66532 2.11186Z" stroke="#A6ADB9" stroke-width="1.5" stroke-linecap="round" stroke-linejoin="round" />
		<path d="M2.66532 13.7785C2.66532 13.3182 2.29223 12.9451 1.83199 12.9451C1.37175 12.9451 0.998657 13.3182 0.998657 13.7785C0.998657 14.2387 1.37175 14.6118 1.83199 14.6118C2.29223 14.6118 2.66532 14.2387 2.66532 13.7785Z" stroke="#A6ADB9" stroke-width="1.5" stroke-linecap="round" stroke-linejoin="round" />
	</g>
	<g id="search" fill="none" xmlns="http://www.w3.org/2000/svg">
		<path d="M8.16667 14.8333C11.8486 14.8333 14.8333 11.8486 14.8333 8.16667C14.8333 4.48477 11.8486 1.5 8.16667 1.5C4.48477 1.5 1.5 4.48477 1.5 8.16667C1.5 11.8486 4.48477 14.8333 8.16667 14.8333Z" stroke="#A6ADB9" stroke-width="1.49439" stroke-linecap="round" stroke-linejoin="round" />
		<path d="M16.5 16.5L12.875 12.875" stroke="#A6ADB9" stroke-width="1.49439" stroke-linecap="round" stroke-linejoin="round" />
	</g>
	<g id="wave" fill="none" xmlns="http://www.w3.org/2000/svg">
		<path fill-rule="evenodd" clip-rule="evenodd" d="M0.0910196 13.9066C0.0910196 14.4589 0.538734 14.9066 1.09102 14.9066C1.6433 14.9066 2.09102 14.4589 2.09102 13.9066V1.95898C2.09102 1.4067 1.6433 0.958984 1.09102 0.958984C0.538734 0.958984 0.0910196 1.4067 0.0910196 1.95898V13.9066ZM5.09114 12.9141C4.53885 12.9141 4.09114 12.4664 4.09114 11.9141V3.9515C4.09114 3.39922 4.53885 2.9515 5.09114 2.9515C5.64342 2.9515 6.09114 3.39922 6.09114 3.9515V11.9141C6.09114 12.4664 5.64342 12.9141 5.09114 12.9141ZM9.09101 11.9178C8.53872 11.9178 8.09101 11.4701 8.09101 10.9178V4.94776C8.09101 4.39548 8.53872 3.94776 9.09101 3.94776C9.64329 3.94776 10.091 4.39548 10.091 4.94776V10.9178C10.091 11.4701 9.64329 11.9178 9.09101 11.9178ZM13.0911 10.9216C12.5388 10.9216 12.0911 10.4739 12.0911 9.92158V5.94402C12.0911 5.39174 12.5388 4.94402 13.0911 4.94402C13.6434 4.94402 14.0911 5.39174 14.0911 5.94402V9.92158C14.0911 10.4739 13.6434 10.9216 13.0911 10.9216Z" fill="#A6ADB9" />
	</g>
</svg>
