<svg xmlns="http://www.w3.org/2000/svg">
	<g id="briefcase">
		<path d="M17.1665 6.33362H3.83317C2.9127 6.33362 2.1665 7.07981 2.1665 8.00028V16.3336C2.1665 17.2541 2.9127 18.0003 3.83317 18.0003H17.1665C18.087 18.0003 18.8332 17.2541 18.8332 16.3336V8.00028C18.8332 7.07981 18.087 6.33362 17.1665 6.33362Z" stroke="#A6ADB9" stroke-width="2.02071" stroke-linecap="round" stroke-linejoin="round" />
		<path d="M13.8332 18.0001V4.66679C13.8332 4.22476 13.6576 3.80084 13.345 3.48828C13.0325 3.17572 12.6085 3.00012 12.1665 3.00012H8.83317C8.39114 3.00012 7.96722 3.17572 7.65466 3.48828C7.3421 3.80084 7.1665 4.22476 7.1665 4.66679V18.0001" stroke="#A6ADB9" stroke-width="2.02071" stroke-linecap="round" stroke-linejoin="round" />
	</g>
	<g id="user">
		<path d="M16.6668 17.5V15.8333C16.6668 14.9493 16.3156 14.1014 15.6905 13.4763C15.0654 12.8512 14.2176 12.5 13.3335 12.5H6.66683C5.78277 12.5 4.93493 12.8512 4.30981 13.4763C3.68469 14.1014 3.3335 14.9493 3.3335 15.8333V17.5" stroke="#A6ADB9" stroke-width="1.5" stroke-linecap="round" stroke-linejoin="round" />
		<path d="M9.99984 9.16667C11.8408 9.16667 13.3332 7.67428 13.3332 5.83333C13.3332 3.99238 11.8408 2.5 9.99984 2.5C8.15889 2.5 6.6665 3.99238 6.6665 5.83333C6.6665 7.67428 8.15889 9.16667 9.99984 9.16667Z" stroke="#A6ADB9" stroke-width="1.5" stroke-linecap="round" stroke-linejoin="round" />
	</g>
	<g id="globe">
		<path fill-rule="evenodd" clip-rule="evenodd" d="M9.99967 0.83313C15.0623 0.83313 19.1663 4.93719 19.1663 9.9998C19.1663 15.0624 15.0623 19.1665 9.99967 19.1665C4.93706 19.1665 0.833008 15.0624 0.833008 9.9998C0.833008 4.93719 4.93706 0.83313 9.99967 0.83313ZM2.55476 9.08919C2.79778 9.40012 3.47327 9.79793 4.50685 10.1225C4.91378 10.2503 5.35945 10.3626 5.83763 10.458C5.83456 10.3062 5.83301 10.1534 5.83301 9.9998C5.83301 7.22708 6.33753 4.72312 7.2115 3.03563C4.71992 4.03413 2.88873 6.33094 2.55476 9.08919ZM5.94059 12.1752C4.60254 11.9426 3.45522 11.5906 2.58572 11.1377C2.99004 13.7949 4.7887 15.9938 7.21193 16.9648C6.5736 15.7326 6.13228 14.065 5.94059 12.1752ZM7.64902 12.3974C8.39662 12.4647 9.18402 12.4996 9.99997 12.4996C10.8028 12.4996 11.5937 12.4541 12.3545 12.3697C11.9786 15.368 10.9392 17.5001 10 17.5001C9.06367 17.5001 8.02776 15.3811 7.64902 12.3974ZM12.4886 10.67C11.6973 10.7725 10.8567 10.8329 9.99997 10.8329C9.12978 10.8329 8.29448 10.7898 7.51274 10.7081C7.50434 10.4752 7.5 10.2391 7.5 10.0001C7.5 5.82012 8.828 2.50012 10 2.50012C11.172 2.50012 12.5 5.82012 12.5 10.0001C12.5 10.2261 12.4961 10.4495 12.4886 10.67ZM14.0657 12.1054C13.8779 14.0241 13.4335 15.7178 12.7872 16.9651C15.2537 15.9772 17.0732 13.7172 17.4344 10.9965C16.5508 11.4561 15.3871 11.8404 14.0657 12.1054ZM17.4404 9.04973C17.0482 9.4899 15.8112 10.0128 14.1632 10.3781C14.1653 10.2526 14.1663 10.1265 14.1663 9.9998C14.1663 7.2269 13.6618 4.72279 12.7877 3.0353C15.2678 4.02886 17.0937 6.30874 17.4404 9.04973Z" fill="#A6ADB9" />
	</g>
	<g id="tasks">
		<g id="24 / chatting / tasks">
			<path id="icon" fill-rule="evenodd" clip-rule="evenodd" d="M10.0722 15L4.99984 18.1702V15H3.33317C2.4127 15 1.6665 14.2538 1.6665 13.3333V3.33329C1.6665 2.41282 2.4127 1.66663 3.33317 1.66663H16.6665C17.587 1.66663 18.3332 2.41282 18.3332 3.33329V13.3333C18.3332 14.2538 17.587 15 16.6665 15H10.0722ZM6.66634 15.163L9.59401 13.3333H16.6663V3.33325H3.33301V13.3333H6.66634V15.163ZM12.7438 5.24402L9.1664 8.82143L7.25566 6.91069L6.07715 8.0892L9.1664 11.1785L13.9223 6.42253L12.7438 5.24402Z" fill="#A6ADB9" />
		</g>
	</g>
	<g id="timeline">
		<path fill-rule="evenodd" clip-rule="evenodd" d="M15.818 0H2.18166C1.34486 0 0.666504 0.746192 0.666504 1.66667V3.33333C0.666504 4.25381 1.34486 5 2.18166 5H15.818C16.6548 5 17.3332 4.25381 17.3332 3.33333V1.66667C17.3332 0.746192 16.6548 0 15.818 0ZM2.18166 6.66667H15.818C16.6548 6.66667 17.3332 7.41286 17.3332 8.33333V10C17.3332 10.9205 16.6548 11.6667 15.818 11.6667H2.18166C1.34486 11.6667 0.666504 10.9205 0.666504 10V8.33333C0.666504 7.41286 1.34486 6.66667 2.18166 6.66667ZM2.33301 8.33335V10H15.6663V8.33335H2.33301ZM2.33301 1.66669V3.33335H15.6663V1.66669H2.33301ZM10.6665 13.3333H0.666504V15H10.6665V13.3333Z" fill="#A6ADB9" />
	</g>
	<g id="products" width="18">
		<path fill-rule="evenodd" clip-rule="evenodd" d="M15.6665 13.8333V5.5C16.587 5.5 17.3332 4.75381 17.3332 3.83333V2.16667C17.3332 1.24619 16.587 0.5 15.6665 0.5H2.33317C1.4127 0.5 0.666504 1.24619 0.666504 2.16667V3.83333C0.666504 4.75381 1.4127 5.5 2.33317 5.5V13.8333C2.33317 14.7538 3.07936 15.5 3.99984 15.5H13.9998C14.9203 15.5 15.6665 14.7538 15.6665 13.8333ZM3.99984 13.8333V5.5H13.9998V13.8333H3.99984ZM6.49984 8V6.33333H11.4998V8H6.49984ZM2.33317 3.83333V2.16667H15.6665V3.83333H2.33317Z" fill="#A6ADB9" />
	</g>
	<g id="hire">
		<path d="M9.16667 16.3333C12.8486 16.3333 15.8333 13.3486 15.8333 9.66667C15.8333 5.98477 12.8486 3 9.16667 3C5.48477 3 2.5 5.98477 2.5 9.66667C2.5 13.3486 5.48477 16.3333 9.16667 16.3333Z" stroke="#A6ADB9" stroke-width="1.5" stroke-linecap="round" stroke-linejoin="round" />
		<path d="M17.5 18L13.875 14.375" stroke="#A6ADB9" stroke-width="1.5" stroke-linecap="round" stroke-linejoin="round" />
		<path d="M12.2002 13.0417V12.2917C12.2002 11.8939 12.0422 11.5124 11.7609 11.2311C11.4796 10.9498 11.098 10.7917 10.7002 10.7917H7.7002C7.30237 10.7917 6.92084 10.9498 6.63954 11.2311C6.35823 11.5124 6.2002 11.8939 6.2002 12.2917V13.0417" stroke="#A6ADB9" stroke-width="1.5" stroke-linecap="round" stroke-linejoin="round" />
		<path d="M9.05566 9.125C9.88409 9.125 10.5557 8.45343 10.5557 7.625C10.5557 6.79657 9.88409 6.125 9.05566 6.125C8.22724 6.125 7.55566 6.79657 7.55566 7.625C7.55566 8.45343 8.22724 9.125 9.05566 9.125Z" stroke="#A6ADB9" stroke-width="1.5" stroke-linecap="round" stroke-linejoin="round" />
	</g>
	<g id="docs">
		<g clip-path="url(#clip0_1638_30502)">
			<path d="M16.6933 5.95962L12.2403 1.5066C12.1376 1.40385 11.9953 1.34351 11.8467 1.34351H4.05371C3.13292 1.34351 2.38379 2.09263 2.38379 3.01343V18.6736C2.38379 19.5944 3.13292 20.3435 4.05371 20.3435H15.1865C16.1073 20.3435 16.8564 19.5944 16.8564 18.6736V6.35327C16.8564 6.20179 16.7921 6.05829 16.6933 5.95962ZM12.4033 3.24399L14.956 5.79663H12.96C12.653 5.79663 12.4033 5.54692 12.4033 5.23999V3.24399ZM15.1865 19.2302H4.05371C3.74678 19.2302 3.49707 18.9805 3.49707 18.6736V3.01343C3.49707 2.7065 3.74678 2.45679 4.05371 2.45679H11.29V5.23999C11.29 6.16079 12.0392 6.90991 12.96 6.90991H15.7432V18.6736C15.7432 18.9805 15.4935 19.2302 15.1865 19.2302Z" fill="#A6ADB9" stroke="#A6ADB9" stroke-width="0.4" />
			<path d="M6.83691 12.0505H6.33691V12.5505V13.6638V14.1638H6.83691H9.06348H9.56348V13.6638V12.5505V12.0505H9.06348H6.83691ZM10.1768 12.0505H9.67676V12.5505V13.6638V14.1638H10.1768H12.4033H12.9033V13.6638V12.5505V12.0505H12.4033H10.1768ZM12.4033 11.9373H12.9033V11.4373V10.324V9.82397H12.4033H10.1768H9.67676V10.324V11.4373V11.9373H10.1768H12.4033ZM9.56348 10.324V9.82397H9.06348H6.83691H6.33691V10.324V11.4373V11.9373H6.83691H9.06348H9.56348V11.4373V10.324ZM6.83691 14.2771H6.33691V14.7771V15.8904V16.3904H6.83691H9.06348H9.56348V15.8904V14.7771V14.2771H9.06348H6.83691ZM9.67676 15.8904V16.3904H10.1768H12.4033H12.9033V15.8904V14.7771V14.2771H12.4033H10.1768H9.67676V14.7771V15.8904ZM6.28027 9.71069H12.96C12.9912 9.71069 13.0166 9.73606 13.0166 9.76733V16.447C13.0166 16.4783 12.9912 16.5037 12.96 16.5037H6.28027C6.249 16.5037 6.22363 16.4783 6.22363 16.447V9.76733C6.22363 9.73606 6.249 9.71069 6.28027 9.71069Z" fill="#A6ADB9" stroke="#A6ADB9" />
		</g>
		<defs>
			<clipPath id="clip0_1638_30502">
				<rect width="20" height="20" fill="white" transform="translate(0.000976562 0.533203)" />
			</clipPath>
		</defs>
	</g>
	<g id="wrist">
		<path fill-rule="evenodd" clip-rule="evenodd" d="M18.8332 9.99935C18.8332 8.59728 17.8912 7.49935 16.3332 7.49935H13.7723L13.7955 7.43624C13.8187 7.37359 13.884 7.20151 13.9474 7.0344C14.0035 6.88655 14.0581 6.74258 14.0807 6.68177C14.2392 6.25648 14.3548 5.91381 14.4484 5.57446C14.5898 5.06154 14.6665 4.59944 14.6665 4.16602C14.6665 2.93934 13.9097 2.17745 12.7901 1.85142C12.2851 1.70437 11.8455 1.66594 11.3332 1.66602H10.9336L10.6834 1.97759C10.4008 2.32955 9.84566 2.96387 9.20568 3.69518L9.20565 3.69521L9.20565 3.69521C8.02503 5.04431 6.55558 6.72344 5.97513 7.56885C5.82451 7.52411 5.66498 7.50009 5.49984 7.50009H3.83317C2.9127 7.50009 2.1665 8.24629 2.1665 9.16676V16.6668C2.1665 17.5872 2.9127 18.3334 3.83317 18.3334H5.49984C6.07244 18.3334 6.5776 18.0447 6.87764 17.6048C7.13045 17.7683 7.41252 17.9048 7.71911 18.0145C8.42104 18.2656 9.11721 18.3428 9.69517 18.3322L15.4998 18.3327C17.7958 18.3327 18.8332 14.9523 18.8332 9.99935ZM8.28057 16.4453C7.54314 16.1814 7.1665 15.7512 7.1665 14.9994V9.16676V9.16602C7.1665 8.96585 7.20353 8.78861 7.2846 8.59933C7.43021 8.25935 8.75145 6.75196 10.0037 5.32325L10.0038 5.32314L10.0039 5.32307C10.6501 4.58576 11.278 3.86941 11.7165 3.34529C11.926 3.36101 12.1235 3.39321 12.3241 3.45163C12.8017 3.59068 12.9998 3.7902 12.9998 4.16602C12.9998 4.42983 12.9464 4.75128 12.8416 5.13152C12.7633 5.41566 12.6618 5.71632 12.5189 6.0999C12.4987 6.15434 12.4481 6.28772 12.3942 6.42955C12.3287 6.60239 12.2583 6.78778 12.2323 6.85814C12.1239 7.15116 12.0525 7.3669 12.0037 7.56294C11.7961 8.39631 12.0044 9.16602 12.9998 9.16602H16.3332C16.9092 9.16602 17.1665 9.46592 17.1665 9.99935C17.1665 13.9916 16.3458 16.666 15.4998 16.666H9.6665L9.63573 16.6665C9.27098 16.6731 8.75869 16.6163 8.28057 16.4453ZM3.83317 16.6668V9.16676H5.49984V16.6668H3.83317Z" fill="#A6ADB9" />
	</g>
	<g id="coin">
		<path d="M10.971 1.96729C5.73975 1.96729 1.5 6.20703 1.5 11.4383C1.5 16.6695 5.73975 20.9093 10.971 20.9093C16.2022 20.9093 20.442 16.6695 20.442 11.4383C20.442 6.20703 16.2022 1.96729 10.971 1.96729ZM10.971 19.3036C6.62765 19.3036 3.10563 15.7816 3.10563 11.4383C3.10563 7.09494 6.62765 3.57291 10.971 3.57291C15.3143 3.57291 18.8364 7.09494 18.8364 11.4383C18.8364 15.7816 15.3143 19.3036 10.971 19.3036ZM11.981 10.9462L11.4445 10.8204V7.98284C12.2474 8.09383 12.7431 8.59698 12.8282 9.21481C12.8393 9.2999 12.9096 9.3591 12.9947 9.3591H13.9455C14.0454 9.3591 14.1231 9.27401 14.1157 9.17412C13.9862 7.85706 12.9022 7.00985 11.4556 6.86556V6.17374C11.4556 6.08125 11.3779 6.00355 11.2855 6.00355H10.6898C10.5973 6.00355 10.5196 6.08125 10.5196 6.17374V6.87296C9.0213 7.01725 7.85222 7.84596 7.85222 9.38869C7.85222 10.8167 8.90661 11.5086 10.0091 11.7712L10.5307 11.9044V14.9196C9.59474 14.7938 9.07309 14.2944 8.9658 13.6247C8.95471 13.5434 8.88071 13.4842 8.79932 13.4842H7.82263C7.72274 13.4842 7.64504 13.5692 7.65244 13.6691C7.74863 14.8308 8.62914 15.9 10.5122 16.0406V16.7028C10.5122 16.7953 10.5899 16.873 10.6824 16.873H11.2818C11.3742 16.873 11.4519 16.7953 11.4519 16.7028L11.4482 16.0332C13.102 15.8889 14.2858 15.001 14.2858 13.4102C14.2821 11.9414 13.3498 11.2866 11.981 10.9462ZM10.5307 10.6059C10.4123 10.5726 10.3125 10.5393 10.2126 10.4986C9.49855 10.2396 9.16558 9.82525 9.16558 9.2888C9.16558 8.52299 9.74642 8.08273 10.5307 7.98284V10.6059ZM11.4408 14.927V12.1005C11.5074 12.119 11.5666 12.1338 11.6258 12.1486C12.6247 12.452 12.9614 12.8774 12.9614 13.5249C12.9651 14.3499 12.3435 14.8456 11.4408 14.927Z" fill="#A6ADB9" />
	</g>
	<g id="communities">
		<path d="M8.5 1C4.35742 1 1 4.35742 1 8.5C1 12.6426 4.35742 16 8.5 16C12.6426 16 16 12.6426 16 8.5C16 4.35742 12.6426 1 8.5 1ZM8.5 14.7285C5.06055 14.7285 2.27148 11.9395 2.27148 8.5C2.27148 5.06055 5.06055 2.27148 8.5 2.27148C11.9395 2.27148 14.7285 5.06055 14.7285 8.5C14.7285 11.9395 11.9395 14.7285 8.5 14.7285Z" fill="#A6ADB9" stroke="#A6ADB9" stroke-width="0.5" />
		<circle cx="3.5" cy="3.5" r="1.75" fill="white" stroke="#A6ADB9" stroke-width="1.5" />
		<circle cx="7.5" cy="15.5" r="1.75" fill="white" stroke="#A6ADB9" stroke-width="1.5" />
		<circle cx="14.5" cy="6.5" r="1.75" fill="white" stroke="#A6ADB9" stroke-width="1.5" />
	</g>
	<g id="news">
		<path fill-rule="evenodd" clip-rule="evenodd" d="M2.33317 13V2.16667H12.3332V13C12.3332 13.2922 12.3833 13.5727 12.4754 13.8333H3.1665C2.70627 13.8333 2.33317 13.4602 2.33317 13ZM14.8332 15.5H3.1665C1.78579 15.5 0.666504 14.3807 0.666504 13V0.5H12.3332H13.1665H13.9998L13.9998 4.66667H17.3332L17.3332 5.5L17.3332 6.33333L17.3332 13C17.3332 14.3807 16.2139 15.5 14.8332 15.5ZM13.9998 6.33333H15.6665V13C15.6665 13.4602 15.2934 13.8333 14.8332 13.8333C14.3729 13.8333 13.9998 13.4602 13.9998 13L13.9998 6.33333ZM7.33317 3.83333V7.16667H3.99984V3.83333H7.33317ZM10.6665 6.33333V4.66667H8.1665V6.33333H10.6665ZM10.6665 8V9.66667H3.99984V8H10.6665ZM10.6665 12.1667V10.5H3.99984V12.1667H10.6665Z" fill="#A6ADB9" />
	</g>
	<g id="calendar">
		<path d="M15.8333 3.33325H4.16667C3.24619 3.33325 2.5 4.07944 2.5 4.99992V16.6666C2.5 17.5871 3.24619 18.3333 4.16667 18.3333H15.8333C16.7538 18.3333 17.5 17.5871 17.5 16.6666V4.99992C17.5 4.07944 16.7538 3.33325 15.8333 3.33325Z" stroke="#A6ADB9" stroke-width="1.5" stroke-linecap="round" stroke-linejoin="round" />
		<path d="M13.3335 1.66675V5.00008" stroke="#A6ADB9" stroke-width="1.5" stroke-linecap="round" stroke-linejoin="round" />
		<path d="M6.6665 1.66675V5.00008" stroke="#A6ADB9" stroke-width="1.5" stroke-linecap="round" stroke-linejoin="round" />
		<path d="M2.5 8.33325H17.5" stroke="#A6ADB9" stroke-width="1.5" stroke-linecap="round" stroke-linejoin="round" />
	</g>
	<g id="time">
		<path fill-rule="evenodd" clip-rule="evenodd" d="M10.0002 18.6668C4.93755 18.6668 0.833496 14.5628 0.833496 9.50016C0.833496 4.43755 4.93755 0.333496 10.0002 0.333496C15.0628 0.333496 19.1668 4.43755 19.1668 9.50016C19.1668 14.5628 15.0628 18.6668 10.0002 18.6668ZM10 17.0001C14.1421 17.0001 17.5 13.6423 17.5 9.50012C17.5 5.35799 14.1421 2.00012 10 2.00012C5.85786 2.00012 2.5 5.35799 2.5 9.50012C2.5 13.6423 5.85786 17.0001 10 17.0001ZM14.167 8.66679H10.8337V4.50012H9.16699V10.3335H14.167V8.66679Z" fill="#A6ADB9" />
	</g>
	<g id="star">
		<path d="M9.99984 1.66675L12.5748 6.88341L18.3332 7.72508L14.1665 11.7834L15.1498 17.5167L9.99984 14.8084L4.84984 17.5167L5.83317 11.7834L1.6665 7.72508L7.42484 6.88341L9.99984 1.66675Z" stroke="#A6ADB9" stroke-width="1.5" stroke-linecap="round" stroke-linejoin="round" />
	</g>
	<g id="logs">
		<path fill-rule="evenodd" clip-rule="evenodd" d="M0.666504 2.50016C0.666504 3.42064 1.4127 4.16683 2.33317 4.16683C3.25365 4.16683 3.99984 3.42064 3.99984 2.50016C3.99984 1.57969 3.25365 0.833496 2.33317 0.833496C1.4127 0.833496 0.666504 1.57969 0.666504 2.50016ZM17.3332 1.66683V3.3335H5.6665V1.66683H17.3332ZM17.3332 8.3335V6.66683H5.6665V8.3335H17.3332ZM5.6665 13.3335H17.3332V11.6668H5.6665V13.3335ZM0.666504 12.5002C0.666504 13.4206 1.4127 14.1668 2.33317 14.1668C3.25365 14.1668 3.99984 13.4206 3.99984 12.5002C3.99984 11.5797 3.25365 10.8335 2.33317 10.8335C1.4127 10.8335 0.666504 11.5797 0.666504 12.5002ZM2.33317 9.16683C1.4127 9.16683 0.666504 8.42064 0.666504 7.50016C0.666504 6.57969 1.4127 5.8335 2.33317 5.8335C3.25365 5.8335 3.99984 6.57969 3.99984 7.50016C3.99984 8.42064 3.25365 9.16683 2.33317 9.16683Z" fill="#A6ADB9" />
	</g>
	<g id="message">
		<path fill-rule="evenodd" clip-rule="evenodd" d="M4.00033 17.1598L9.07266 13.9896H15.667C16.5875 13.9896 17.3337 13.2434 17.3337 12.3229V2.32292C17.3337 1.40244 16.5875 0.65625 15.667 0.65625H2.33366C1.41318 0.65625 0.666992 1.40244 0.666992 2.32292V12.3229C0.666992 13.2434 1.41318 13.9896 2.33366 13.9896H4.00033V17.1598ZM8.59474 12.3228L5.66707 14.1525V12.3228H2.33374V2.32275H15.6671V12.3228H8.59474ZM4.83366 9.82292V8.15625H10.667V9.82292H4.83366ZM4.83374 4.82275V6.48942H12.3337V4.82275H4.83374Z" fill="#A6ADB9" />
	</g>
</svg>
