<svg width="20" height="20" viewBox="0 0 20 20" fill="none" xmlns="http://www.w3.org/2000/svg">
	<g id="24 / chatting / tasks">
		<path id="icon" fill-rule="evenodd" clip-rule="evenodd" d="M10.0722 15L4.99984 18.1702V15H3.33317C2.4127 15 1.6665 14.2538 1.6665 13.3333V3.33329C1.6665 2.41282 2.4127 1.66663 3.33317 1.66663H16.6665C17.587 1.66663 18.3332 2.41282 18.3332 3.33329V13.3333C18.3332 14.2538 17.587 15 16.6665 15H10.0722ZM6.66634 15.163L9.59401 13.3333H16.6663V3.33325H3.33301V13.3333H6.66634V15.163ZM12.7438 5.24402L9.1664 8.82143L7.25566 6.91069L6.07715 8.0892L9.1664 11.1785L13.9223 6.42253L12.7438 5.24402Z" fill="#A6ADB9" />
	</g>
</svg>
