<svg width="18" height="15" viewBox="0 0 18 15" fill="none" xmlns="http://www.w3.org/2000/svg">
	<path fill-rule="evenodd" clip-rule="evenodd" d="M15.818 0H2.18166C1.34486 0 0.666504 0.746192 0.666504 1.66667V3.33333C0.666504 4.25381 1.34486 5 2.18166 5H15.818C16.6548 5 17.3332 4.25381 17.3332 3.33333V1.66667C17.3332 0.746192 16.6548 0 15.818 0ZM2.18166 6.66667H15.818C16.6548 6.66667 17.3332 7.41286 17.3332 8.33333V10C17.3332 10.9205 16.6548 11.6667 15.818 11.6667H2.18166C1.34486 11.6667 0.666504 10.9205 0.666504 10V8.33333C0.666504 7.41286 1.34486 6.66667 2.18166 6.66667ZM2.33301 8.33335V10H15.6663V8.33335H2.33301ZM2.33301 1.66669V3.33335H15.6663V1.66669H2.33301ZM10.6665 13.3333H0.666504V15H10.6665V13.3333Z" fill="#A6ADB9" />
</svg>
