<svg width="20" height="19" viewBox="0 0 20 19" fill="none" xmlns="http://www.w3.org/2000/svg">
<path fill-rule="evenodd" clip-rule="evenodd" d="M10.0002 18.6668C4.93755 18.6668 0.833496 14.5628 0.833496 9.50016C0.833496 4.43755 4.93755 0.333496 10.0002 0.333496C15.0628 0.333496 19.1668 4.43755 19.1668 9.50016C19.1668 14.5628 15.0628 18.6668 10.0002 18.6668ZM10 17.0001C14.1421 17.0001 17.5 13.6423 17.5 9.50012C17.5 5.35799 14.1421 2.00012 10 2.00012C5.85786 2.00012 2.5 5.35799 2.5 9.50012C2.5 13.6423 5.85786 17.0001 10 17.0001ZM14.167 8.66679H10.8337V4.50012H9.16699V10.3335H14.167V8.66679Z" fill="#A6ADB9"/>
</svg>
