<svg width="21" height="20" viewBox="0 0 21 20" fill="none" xmlns="http://www.w3.org/2000/svg">
<path fill-rule="evenodd" clip-rule="evenodd" d="M18.8332 9.99935C18.8332 8.59728 17.8912 7.49935 16.3332 7.49935H13.7723L13.7955 7.43624C13.8187 7.37359 13.884 7.20151 13.9474 7.0344C14.0035 6.88655 14.0581 6.74258 14.0807 6.68177C14.2392 6.25648 14.3548 5.91381 14.4484 5.57446C14.5898 5.06154 14.6665 4.59944 14.6665 4.16602C14.6665 2.93934 13.9097 2.17745 12.7901 1.85142C12.2851 1.70437 11.8455 1.66594 11.3332 1.66602H10.9336L10.6834 1.97759C10.4008 2.32955 9.84566 2.96387 9.20568 3.69518L9.20565 3.69521L9.20565 3.69521C8.02503 5.04431 6.55558 6.72344 5.97513 7.56885C5.82451 7.52411 5.66498 7.50009 5.49984 7.50009H3.83317C2.9127 7.50009 2.1665 8.24629 2.1665 9.16676V16.6668C2.1665 17.5872 2.9127 18.3334 3.83317 18.3334H5.49984C6.07244 18.3334 6.5776 18.0447 6.87764 17.6048C7.13045 17.7683 7.41252 17.9048 7.71911 18.0145C8.42104 18.2656 9.11721 18.3428 9.69517 18.3322L15.4998 18.3327C17.7958 18.3327 18.8332 14.9523 18.8332 9.99935ZM8.28057 16.4453C7.54314 16.1814 7.1665 15.7512 7.1665 14.9994V9.16676V9.16602C7.1665 8.96585 7.20353 8.78861 7.2846 8.59933C7.43021 8.25935 8.75145 6.75196 10.0037 5.32325L10.0038 5.32314L10.0039 5.32307C10.6501 4.58576 11.278 3.86941 11.7165 3.34529C11.926 3.36101 12.1235 3.39321 12.3241 3.45163C12.8017 3.59068 12.9998 3.7902 12.9998 4.16602C12.9998 4.42983 12.9464 4.75128 12.8416 5.13152C12.7633 5.41566 12.6618 5.71632 12.5189 6.0999C12.4987 6.15434 12.4481 6.28772 12.3942 6.42955C12.3287 6.60239 12.2583 6.78778 12.2323 6.85814C12.1239 7.15116 12.0525 7.3669 12.0037 7.56294C11.7961 8.39631 12.0044 9.16602 12.9998 9.16602H16.3332C16.9092 9.16602 17.1665 9.46592 17.1665 9.99935C17.1665 13.9916 16.3458 16.666 15.4998 16.666H9.6665L9.63573 16.6665C9.27098 16.6731 8.75869 16.6163 8.28057 16.4453ZM3.83317 16.6668V9.16676H5.49984V16.6668H3.83317Z" fill="#A6ADB9"/>
</svg>
